{"glyphs":{"0":{"ha":774,"x_min":0,"x_max":0,"o":"m 386 981 b 697 485 588 981 697 774 b 386 -10 697 196 588 -10 b 76 485 186 -10 76 196 b 386 981 76 774 186 981 m 386 63 b 619 485 536 63 619 236 b 386 908 619 735 536 908 b 153 485 236 908 153 735 b 386 63 153 236 236 63 "},"1":{"ha":560,"x_min":0,"x_max":0,"o":"m 476 69 l 476 0 l 106 0 l 106 69 l 256 69 l 256 872 l 89 733 l 49 775 l 256 972 l 328 972 l 328 69 "},"2":{"ha":711,"x_min":0,"x_max":0,"o":"m 642 72 l 642 0 l 71 0 l 69 72 b 444 518 69 72 353 389 b 532 758 514 617 536 703 b 368 907 524 844 458 900 b 154 750 243 918 174 831 l 88 774 b 363 979 104 861 192 989 b 603 769 500 972 593 896 b 507 482 610 689 581 588 b 167 72 432 374 250 167 "},"3":{"ha":765,"x_min":0,"x_max":0,"o":"m 386 579 b 696 294 574 579 696 474 b 365 -11 696 119 567 -19 b 69 143 229 -6 122 54 l 131 179 b 361 58 176 108 257 63 b 622 286 504 53 622 146 b 397 518 622 428 538 507 b 288 504 340 522 307 511 l 240 549 l 539 900 l 138 900 l 138 972 l 633 972 l 633 900 l 351 578 b 386 579 363 579 374 579 "},"4":{"ha":794,"x_min":0,"x_max":0,"o":"m 725 243 l 594 243 l 594 0 l 522 0 l 522 243 l 90 243 l 90 317 l 482 972 l 571 972 l 175 317 l 522 317 l 522 583 l 594 583 l 594 317 l 725 317 "},"5":{"ha":743,"x_min":0,"x_max":0,"o":"m 375 583 b 674 290 564 575 674 471 b 358 -11 674 115 550 -17 b 56 143 224 -7 108 54 l 119 179 b 358 60 168 106 264 60 b 600 286 494 57 600 149 b 379 514 600 428 519 504 b 194 490 303 519 225 497 l 124 501 l 217 972 l 218 972 l 218 972 l 642 972 l 642 900 l 276 900 l 208 560 b 375 583 243 571 304 586 "},"6":{"ha":772,"x_min":0,"x_max":0,"o":"m 386 619 b 703 307 567 619 703 490 b 386 -10 703 122 567 -10 b 69 307 206 -10 69 122 b 131 511 69 374 92 443 b 438 972 172 582 438 972 l 519 972 l 274 600 b 386 619 307 611 349 619 m 386 60 b 629 307 531 60 629 164 b 386 550 629 450 531 550 b 143 307 242 550 143 450 b 386 60 143 164 242 60 "},"7":{"ha":644,"x_min":0,"x_max":0,"o":"m 603 972 l 603 900 l 192 0 l 111 0 l 524 900 l 42 900 l 42 972 "},"8":{"ha":761,"x_min":0,"x_max":0,"o":"m 504 531 b 692 278 617 488 692 392 b 381 -10 692 121 576 -10 b 69 278 185 -10 69 121 b 257 531 69 392 151 493 b 121 743 172 565 121 653 b 381 981 121 876 229 981 b 640 743 532 981 640 876 b 504 531 640 653 590 565 m 192 740 b 381 561 192 646 254 561 b 569 740 506 561 569 646 b 381 914 569 836 494 914 b 192 740 267 914 192 836 m 381 58 b 617 274 514 58 617 157 b 381 493 617 389 532 493 b 144 274 229 493 144 389 b 381 58 144 157 247 58 "},"9":{"ha":767,"x_min":0,"x_max":0,"o":"m 388 353 b 69 665 207 353 69 481 b 388 982 69 850 207 982 b 704 665 568 982 704 850 b 642 461 704 599 682 528 b 336 0 600 389 336 0 l 254 0 l 500 372 b 388 353 467 361 424 353 m 388 913 b 144 665 243 913 144 808 b 388 422 144 522 243 422 b 631 665 531 422 631 522 b 388 913 631 808 531 913 "},"A":{"ha":860,"x_min":0,"x_max":0,"o":"m 832 0 l 754 0 l 429 851 l 106 0 l 28 0 l 399 972 l 461 972 "},"B":{"ha":863,"x_min":0,"x_max":0,"o":"m 613 522 b 779 275 717 486 779 393 b 488 0 779 114 674 0 l 111 0 l 111 550 l 463 550 b 650 725 576 550 650 617 b 463 900 650 833 582 900 l 111 900 l 111 972 l 460 972 b 726 725 631 972 726 868 b 613 522 726 638 682 563 m 489 72 b 703 275 619 72 703 153 b 489 478 703 397 621 478 l 185 478 l 185 72 l 489 72 "},"C":{"ha":1026,"x_min":0,"x_max":0,"o":"m 556 65 b 886 251 699 65 818 140 l 956 217 b 556 -10 875 79 732 -10 b 83 486 279 -10 83 210 b 556 981 83 761 279 981 b 956 754 732 981 875 892 l 886 719 b 556 906 818 831 699 906 b 164 486 326 906 164 715 b 556 65 164 256 326 65 m 494 483 b 560 549 494 519 524 549 b 624 483 594 549 624 519 b 560 419 624 449 594 419 b 494 483 524 419 494 449 "},"D":{"ha":983,"x_min":0,"x_max":0,"o":"m 382 972 b 900 486 707 972 900 778 b 382 0 900 194 711 0 l 111 0 l 111 469 l 183 469 l 183 72 b 400 72 218 72 283 72 b 819 486 663 72 819 239 b 400 900 819 733 656 900 b 111 900 172 900 111 900 l 111 972 b 382 972 111 972 111 972 "},"E":{"ha":840,"x_min":0,"x_max":0,"o":"m 706 450 l 111 450 l 111 522 l 706 522 m 757 72 l 757 0 l 111 0 l 111 72 m 749 900 l 111 900 l 111 972 l 749 972 "},"F":{"ha":790,"x_min":0,"x_max":0,"o":"m 656 522 l 656 450 l 183 450 l 183 0 l 111 0 l 111 522 m 749 972 l 749 900 l 111 900 l 111 972 "},"G":{"ha":1039,"x_min":0,"x_max":0,"o":"m 956 525 l 956 125 b 556 -10 878 53 744 -21 b 83 486 272 10 83 211 b 556 982 83 763 272 964 b 928 872 724 993 849 935 l 888 814 b 556 906 832 858 700 924 b 163 486 321 878 163 717 b 556 67 163 257 321 94 b 883 154 696 50 826 108 l 883 525 "},"I":{"ha":294,"x_min":0,"x_max":0,"o":"m 183 972 l 183 824 l 111 824 l 111 972 m 111 696 l 183 696 l 183 0 l 111 0 "},"J":{"ha":592,"x_min":0,"x_max":0,"o":"m 481 696 b 481 285 481 696 481 425 b 250 -10 481 76 383 -10 b 39 74 144 -10 68 38 l 88 124 b 244 63 115 93 172 63 b 408 278 339 63 408 128 b 408 696 408 371 408 696 m 481 972 b 481 824 481 972 481 911 l 408 824 b 408 972 408 911 408 972 l 481 972 "},"K":{"ha":846,"x_min":0,"x_max":0,"o":"m 378 451 l 183 451 l 183 0 l 111 0 l 111 972 l 183 972 l 183 524 l 375 524 l 706 972 l 796 972 l 440 489 l 832 0 l 742 0 "},"L":{"ha":724,"x_min":0,"x_max":0,"o":"m 183 824 l 111 824 l 111 972 l 183 972 m 183 186 l 111 115 l 111 696 l 183 696 m 696 0 l 194 0 l 267 72 l 696 72 "},"M":{"ha":1175,"x_min":0,"x_max":0,"o":"m 1064 981 l 1064 0 l 992 0 l 992 779 l 594 240 l 582 240 l 183 775 l 183 0 l 111 0 l 111 981 l 124 981 l 588 361 l 1051 981 "},"N":{"ha":963,"x_min":0,"x_max":0,"o":"m 779 972 l 851 972 l 851 -10 l 840 -10 l 183 796 l 183 0 l 111 0 l 111 981 l 124 981 l 779 182 "},"O":{"ha":1111,"x_min":0,"x_max":0,"o":"m 556 981 b 1028 486 832 981 1028 761 b 556 -10 1028 210 832 -10 b 83 486 279 -10 83 210 b 556 981 83 761 279 981 m 556 65 b 947 486 785 65 947 256 b 556 906 947 715 785 906 b 164 486 326 906 164 715 b 556 65 164 256 326 65 m 556 550 b 621 486 592 550 621 521 b 556 421 621 450 592 421 b 492 486 521 421 492 450 b 556 550 492 521 521 550 "},"P":{"ha":860,"x_min":0,"x_max":0,"o":"m 451 972 b 776 675 654 972 776 847 b 451 378 776 503 657 378 l 183 378 l 183 0 l 111 0 l 111 450 l 461 450 b 700 675 607 450 700 539 b 461 900 700 813 603 900 l 111 900 l 111 972 l 451 972 "},"Q":{"ha":1111,"x_min":0,"x_max":0,"o":"m 1028 486 b 592 -8 1028 222 847 10 l 592 -207 l 518 -207 l 518 -8 b 83 486 263 10 83 222 b 556 981 83 761 279 981 b 1028 486 831 981 1028 761 m 556 65 b 947 486 785 65 947 256 b 556 906 947 715 785 906 b 164 486 325 906 164 715 b 556 65 164 256 325 65 "},"R":{"ha":861,"x_min":0,"x_max":0,"o":"m 722 0 l 507 381 b 456 378 490 379 474 378 l 185 378 l 185 0 l 111 0 l 111 450 l 461 450 b 701 675 607 450 701 539 b 461 900 701 813 603 900 l 111 900 l 111 972 l 456 972 b 778 675 658 972 778 847 b 581 396 778 542 707 436 l 806 0 "},"S":{"ha":876,"x_min":0,"x_max":0,"o":"m 139 231 b 243 106 156 176 192 133 l 213 43 b 69 207 147 78 93 131 l 139 231 m 440 524 b 793 249 718 464 793 392 b 446 -11 793 90 646 -11 b 403 -10 432 -11 417 -11 l 438 61 b 446 61 440 61 443 61 b 721 249 558 61 721 104 b 424 454 721 375 608 413 b 90 715 267 492 90 539 b 408 982 90 890 239 982 b 500 974 442 982 472 978 l 454 907 b 407 910 439 908 424 910 b 163 715 240 910 163 824 b 440 524 163 603 265 561 "},"T":{"ha":732,"x_min":0,"x_max":0,"o":"m 718 972 l 718 900 l 15 900 l 15 972 m 331 711 l 403 711 l 403 0 l 331 0 "},"U":{"ha":918,"x_min":0,"x_max":0,"o":"m 463 63 b 747 363 615 63 738 154 l 817 332 b 463 -10 793 99 646 -10 b 97 404 263 -10 97 113 l 97 696 l 169 696 l 169 392 b 463 63 169 163 303 63 m 821 972 l 821 483 l 749 514 l 749 972 m 169 824 l 97 824 l 97 972 l 169 972 "},"V":{"ha":832,"x_min":0,"x_max":0,"o":"m 818 972 l 446 0 l 383 0 l 376 21 l 740 972 m 90 972 l 299 426 l 260 325 l 13 972 "},"W":{"ha":1357,"x_min":0,"x_max":0,"o":"m 1343 972 l 956 0 l 893 0 l 678 506 l 463 0 l 401 0 l 14 972 l 90 972 l 432 121 l 639 599 l 478 972 l 556 972 l 678 690 l 800 972 l 878 972 l 718 599 l 924 121 l 1265 972 "},"X":{"ha":842,"x_min":0,"x_max":0,"o":"m 275 644 l 46 972 l 135 972 l 319 708 m 814 0 l 725 0 l 376 500 l 707 972 l 796 972 l 465 500 m 275 354 l 321 293 l 117 0 l 28 0 "},"Y":{"ha":832,"x_min":0,"x_max":0,"o":"m 381 194 l 453 194 l 453 0 l 381 0 m 804 972 l 461 361 l 371 361 l 28 972 l 111 972 l 417 428 l 721 972 "},"Z":{"ha":825,"x_min":0,"x_max":0,"o":"m 783 72 l 783 0 l 42 0 l 42 72 l 681 900 l 771 900 l 133 72 m 394 900 l 83 900 l 83 972 l 450 972 "},"a":{"ha":697,"x_min":0,"x_max":0,"o":"m 347 681 b 600 450 488 681 600 614 l 600 0 l 528 0 l 528 106 b 278 -10 471 39 385 -10 b 56 176 140 -10 56 65 b 310 378 56 300 143 354 b 528 467 493 406 528 410 b 347 610 528 544 463 610 b 154 478 210 610 163 532 l 83 494 b 347 681 100 579 176 681 m 528 343 b 306 306 489 335 392 318 b 128 172 185 289 128 251 b 282 63 128 104 183 63 b 528 288 397 63 528 146 "},"b":{"ha":785,"x_min":0,"x_max":0,"o":"m 413 681 b 729 335 603 681 729 526 b 417 -10 729 144 607 -10 b 169 121 308 -10 221 42 l 169 0 l 97 0 l 97 972 l 169 972 l 169 550 b 413 681 221 629 304 681 m 413 60 b 656 335 565 60 656 183 b 413 611 656 488 565 611 b 174 335 261 611 174 488 b 413 60 174 183 261 60 "},"c":{"ha":708,"x_min":0,"x_max":0,"o":"m 381 60 b 590 178 474 60 547 107 l 653 147 b 381 -10 599 53 501 -10 b 56 335 190 -10 56 144 b 381 681 56 526 190 681 b 653 524 501 681 599 618 l 590 493 b 381 611 547 564 474 611 b 129 335 228 611 129 488 b 381 60 129 183 228 60 "},"d":{"ha":785,"x_min":0,"x_max":0,"o":"m 688 972 l 688 0 l 615 0 l 615 121 b 372 -10 564 42 482 -10 b 56 335 182 -10 56 144 b 372 681 56 526 182 681 b 615 550 482 681 564 629 l 615 972 m 372 60 b 611 335 524 60 611 183 b 372 611 611 488 524 611 b 129 335 221 611 129 488 b 372 60 129 183 221 60 "},"e":{"ha":728,"x_min":0,"x_max":0,"o":"m 131 299 b 385 60 146 164 244 60 b 590 182 478 60 547 111 l 653 151 b 385 -10 599 57 506 -10 b 56 335 193 -10 56 144 b 376 681 56 526 186 681 b 672 335 567 681 672 526 b 671 299 672 324 672 311 m 601 371 b 376 611 590 507 515 611 b 131 371 236 611 144 507 "},"f":{"ha":397,"x_min":0,"x_max":0,"o":"m 256 907 b 199 779 232 897 199 876 l 199 669 l 350 669 l 350 597 l 199 597 l 199 0 l 126 0 l 126 597 l 28 597 l 28 669 l 126 669 l 126 778 b 225 971 126 900 169 950 b 411 936 278 992 358 976 l 372 885 b 256 907 342 907 285 921 "},"g":{"ha":706,"x_min":0,"x_max":0,"o":"m 678 654 b 540 583 610 654 564 614 b 583 447 567 547 583 501 b 325 214 583 301 468 214 b 267 219 306 214 286 215 b 238 128 235 193 210 149 b 364 114 257 113 315 115 b 650 -60 556 111 650 61 b 326 -271 650 -204 507 -282 b 28 -161 204 -264 97 -226 l 71 -110 b 338 -199 131 -162 231 -196 b 574 -64 529 -204 574 -117 b 361 42 574 10 508 35 b 192 68 294 44 229 44 b 206 238 129 107 153 185 b 68 447 124 274 68 346 b 325 681 68 593 183 681 b 501 624 393 681 456 660 b 678 726 542 688 604 726 l 678 654 m 325 286 b 511 447 428 286 511 340 b 325 608 511 554 428 608 b 140 447 224 608 140 554 b 325 286 140 340 224 286 "},"h":{"ha":731,"x_min":0,"x_max":0,"o":"m 371 681 b 633 360 556 681 633 551 b 633 0 633 193 633 0 l 561 0 b 561 360 561 0 561 207 b 371 608 561 538 485 608 b 169 360 261 608 169 538 l 169 0 l 97 0 l 97 972 l 169 972 l 169 571 b 371 681 215 640 282 681 "},"i":{"ha":283,"x_min":0,"x_max":0,"o":"m 99 669 l 171 669 l 171 0 l 99 0 m 135 900 b 186 849 163 900 186 878 b 135 797 186 821 163 797 b 83 849 106 797 83 821 b 135 900 83 878 106 900 "},"j":{"ha":325,"x_min":0,"x_max":0,"o":"m 213 669 l 213 -110 b 108 -304 213 -232 165 -287 b -69 -269 60 -318 -15 -310 l -31 -217 b 75 -237 0 -237 46 -244 b 140 -111 101 -232 140 -207 l 140 669 m 176 900 b 228 849 204 900 228 878 b 176 797 228 821 204 797 b 125 849 147 797 125 821 b 176 900 125 878 147 900 "},"k":{"ha":667,"x_min":0,"x_max":0,"o":"m 319 299 l 169 299 l 169 0 l 97 0 l 97 972 l 169 972 l 169 371 l 299 371 l 518 669 l 608 669 l 372 349 l 653 0 l 558 0 "},"l":{"ha":386,"x_min":0,"x_max":0,"o":"m 344 29 b 176 1 292 -10 228 -19 b 97 192 126 22 97 58 l 97 1042 l 171 1042 l 171 193 b 214 65 171 97 185 75 b 318 83 244 54 288 63 "},"m":{"ha":1147,"x_min":0,"x_max":0,"o":"m 800 681 b 1050 360 985 681 1050 551 b 1050 0 1050 193 1050 0 l 978 0 b 978 360 978 0 978 207 b 792 608 978 538 906 608 b 610 360 682 608 610 538 l 610 0 l 538 0 b 538 360 538 0 538 207 b 351 608 538 538 465 608 b 169 360 243 608 169 538 l 169 0 l 97 0 l 97 669 l 169 669 l 169 576 b 360 681 211 642 275 681 b 582 540 478 681 547 628 b 800 681 625 626 701 681 "},"n":{"ha":731,"x_min":0,"x_max":0,"o":"m 371 681 b 633 360 557 681 633 551 b 633 0 633 193 633 0 l 561 0 b 561 360 561 0 561 207 b 371 608 561 538 485 608 b 169 360 263 608 169 538 l 169 0 l 97 0 l 97 669 l 169 669 l 169 571 b 371 681 215 640 283 681 "},"o":{"ha":756,"x_min":0,"x_max":0,"o":"m 379 681 b 700 335 571 681 700 525 b 379 -10 700 144 571 -10 b 56 335 189 -10 56 144 b 379 681 56 525 189 681 m 379 60 b 626 335 532 60 626 183 b 379 610 626 488 532 610 b 129 335 228 610 129 488 b 379 60 129 183 228 60 "},"p":{"ha":771,"x_min":0,"x_max":0,"o":"m 399 681 b 715 335 589 681 715 525 b 399 -10 715 144 589 -10 b 156 121 289 -10 207 42 l 156 -303 l 83 -303 l 83 669 l 156 669 l 156 550 b 399 681 207 629 289 681 m 399 60 b 642 335 550 60 642 183 b 399 610 642 488 550 610 b 160 335 247 610 160 488 b 399 60 160 183 247 60 "},"q":{"ha":785,"x_min":0,"x_max":0,"o":"m 688 669 l 688 -303 l 615 -303 l 615 121 b 372 -10 565 42 482 -10 b 56 335 182 -10 56 144 b 372 681 56 525 182 681 b 615 550 482 681 565 629 l 615 669 m 372 60 b 611 335 525 60 611 183 b 372 610 611 488 525 610 b 129 335 221 610 129 488 b 372 60 129 183 221 60 "},"r":{"ha":425,"x_min":0,"x_max":0,"o":"m 375 681 b 411 678 388 681 400 679 l 399 607 b 375 608 390 607 383 608 b 169 360 267 608 169 538 l 169 0 l 97 0 l 97 669 l 169 669 l 169 571 b 375 681 215 640 288 681 "},"s":{"ha":600,"x_min":0,"x_max":0,"o":"m 292 681 b 517 540 410 681 490 625 l 450 510 b 290 608 436 569 379 608 b 143 486 196 608 139 565 b 313 378 147 428 204 404 b 544 181 422 351 544 318 b 310 -11 544 51 431 -11 b 56 143 156 -11 82 63 l 122 174 b 310 61 140 103 206 61 b 472 181 388 61 472 94 b 294 307 472 256 414 278 b 71 486 154 343 76 383 b 292 681 65 600 144 681 "},"t":{"ha":433,"x_min":0,"x_max":0,"o":"m 426 43 b 229 0 367 -10 282 -21 b 131 196 174 21 131 72 l 131 597 l 28 597 l 28 669 l 131 669 l 131 840 l 203 860 l 203 669 l 356 669 l 356 597 l 203 597 l 203 193 b 260 68 203 97 236 76 b 386 99 294 54 351 68 "},"u":{"ha":671,"x_min":0,"x_max":0,"o":"m 601 669 b 601 310 601 669 601 476 b 336 -10 601 118 521 -10 b 69 310 150 -10 69 118 b 69 669 69 476 69 669 l 142 669 b 142 310 142 669 142 463 b 336 63 142 133 222 63 b 529 310 450 63 529 133 b 529 669 529 463 529 669 "},"v":{"ha":631,"x_min":0,"x_max":0,"o":"m 611 669 l 361 0 l 283 0 l 33 669 l 111 669 l 322 101 l 535 669 "},"w":{"ha":986,"x_min":0,"x_max":0,"o":"m 958 669 l 743 0 l 669 0 l 486 553 l 304 0 l 231 0 l 14 669 l 90 669 l 269 115 l 453 669 l 521 669 l 704 115 l 883 669 "},"x":{"ha":639,"x_min":0,"x_max":0,"o":"m 522 0 l 319 283 l 117 0 l 28 0 l 275 344 l 43 669 l 132 669 l 319 407 l 508 669 l 597 669 l 364 344 l 611 0 "},"y":{"ha":632,"x_min":0,"x_max":0,"o":"m 367 14 b 261 -208 329 -86 301 -157 b 75 -268 228 -251 171 -283 l 92 -197 b 285 1 190 -211 219 -168 l 33 669 l 111 669 l 322 101 l 535 669 l 613 669 "},"z":{"ha":614,"x_min":0,"x_max":0,"o":"m 558 72 l 558 0 l 42 0 l 42 72 l 457 597 l 60 597 l 60 669 l 546 669 l 546 597 l 133 72 "},"А":{"ha":860,"x_min":0,"x_max":0,"o":"m 832 0 l 754 0 l 429 851 l 106 0 l 28 0 l 399 972 l 461 972 "},"В":{"ha":863,"x_min":0,"x_max":0,"o":"m 613 522 b 779 275 717 486 779 393 b 488 0 779 114 674 0 l 111 0 l 111 550 l 463 550 b 650 725 576 550 650 617 b 463 900 650 833 582 900 l 111 900 l 111 972 l 460 972 b 726 725 631 972 726 868 b 613 522 726 638 682 563 m 489 72 b 703 275 619 72 703 153 b 489 478 703 397 621 478 l 185 478 l 185 72 l 489 72 "},"С":{"ha":1026,"x_min":0,"x_max":0,"o":"m 556 65 b 886 251 699 65 818 140 l 956 217 b 556 -10 875 79 732 -10 b 83 486 279 -10 83 210 b 556 981 83 761 279 981 b 956 754 732 981 875 892 l 886 719 b 556 906 818 831 699 906 b 164 486 326 906 164 715 b 556 65 164 256 326 65 m 494 483 b 560 549 494 519 524 549 b 624 483 594 549 624 519 b 560 419 624 449 594 419 b 494 483 524 419 494 449 "},"Е":{"ha":840,"x_min":0,"x_max":0,"o":"m 706 450 l 111 450 l 111 522 l 706 522 m 757 72 l 757 0 l 111 0 l 111 72 m 749 900 l 111 900 l 111 972 l 749 972 "},"Н":{"ha":960,"x_min":0,"x_max":0,"o":"m 111 261 l 183 261 l 183 0 l 111 0 m 849 972 l 849 711 l 776 711 l 776 972 m 849 522 l 849 0 l 776 0 l 776 450 l 111 450 l 111 972 l 183 972 l 183 522 "},"К":{"ha":846,"x_min":0,"x_max":0,"o":"m 378 451 l 183 451 l 183 0 l 111 0 l 111 972 l 183 972 l 183 524 l 375 524 l 706 972 l 796 972 l 440 489 l 832 0 l 742 0 "},"М":{"ha":1175,"x_min":0,"x_max":0,"o":"m 1064 981 l 1064 0 l 992 0 l 992 779 l 594 240 l 582 240 l 183 775 l 183 0 l 111 0 l 111 981 l 124 981 l 588 361 l 1051 981 "},"О":{"ha":1111,"x_min":0,"x_max":0,"o":"m 556 981 b 1028 486 832 981 1028 761 b 556 -10 1028 210 832 -10 b 83 486 279 -10 83 210 b 556 981 83 761 279 981 m 556 65 b 947 486 785 65 947 256 b 556 906 947 715 785 906 b 164 486 326 906 164 715 b 556 65 164 256 326 65 m 556 550 b 621 486 592 550 621 521 b 556 421 621 450 592 421 b 492 486 521 421 492 450 b 556 550 492 521 521 550 "},"Р":{"ha":860,"x_min":0,"x_max":0,"o":"m 451 972 b 776 675 654 972 776 847 b 451 378 776 503 657 378 l 183 378 l 183 0 l 111 0 l 111 450 l 461 450 b 700 675 607 450 700 539 b 461 900 700 813 603 900 l 111 900 l 111 972 l 451 972 "},"Т":{"ha":732,"x_min":0,"x_max":0,"o":"m 718 972 l 718 900 l 15 900 l 15 972 m 331 711 l 403 711 l 403 0 l 331 0 "},"Х":{"ha":842,"x_min":0,"x_max":0,"o":"m 275 644 l 46 972 l 135 972 l 319 708 m 814 0 l 725 0 l 376 500 l 707 972 l 796 972 l 465 500 m 275 354 l 321 293 l 117 0 l 28 0 "},"а":{"ha":697,"x_min":0,"x_max":0,"o":"m 347 681 b 600 450 488 681 600 614 l 600 0 l 528 0 l 528 106 b 278 -10 471 39 385 -10 b 56 176 140 -10 56 65 b 310 378 56 300 143 354 b 528 467 493 406 528 410 b 347 610 528 544 463 610 b 154 478 210 610 163 532 l 83 494 b 347 681 100 579 176 681 m 528 343 b 306 306 489 335 392 318 b 128 172 185 289 128 251 b 282 63 128 104 183 63 b 528 288 397 63 528 146 "},"с":{"ha":708,"x_min":0,"x_max":0,"o":"m 381 60 b 590 178 474 60 547 107 l 653 147 b 381 -10 599 53 501 -10 b 56 335 190 -10 56 144 b 381 681 56 526 190 681 b 653 524 501 681 599 618 l 590 493 b 381 611 547 564 474 611 b 129 335 228 611 129 488 b 381 60 129 183 228 60 "},"е":{"ha":728,"x_min":0,"x_max":0,"o":"m 131 299 b 385 60 146 164 244 60 b 590 182 478 60 547 111 l 653 151 b 385 -10 599 57 506 -10 b 56 335 193 -10 56 144 b 376 681 56 526 186 681 b 672 335 567 681 672 526 b 671 299 672 324 672 311 m 601 371 b 376 611 590 507 515 611 b 131 371 236 611 144 507 "},"о":{"ha":756,"x_min":0,"x_max":0,"o":"m 379 681 b 700 335 571 681 700 525 b 379 -10 700 144 571 -10 b 56 335 189 -10 56 144 b 379 681 56 525 189 681 m 379 60 b 626 335 532 60 626 183 b 379 610 626 488 532 610 b 129 335 228 610 129 488 b 379 60 129 183 228 60 "},"р":{"ha":771,"x_min":0,"x_max":0,"o":"m 399 681 b 715 335 589 681 715 525 b 399 -10 715 144 589 -10 b 156 121 289 -10 207 42 l 156 -303 l 83 -303 l 83 669 l 156 669 l 156 550 b 399 681 207 629 289 681 m 399 60 b 642 335 550 60 642 183 b 399 610 642 488 550 610 b 160 335 247 610 160 488 b 399 60 160 183 247 60 "},"х":{"ha":639,"x_min":0,"x_max":0,"o":"m 522 0 l 319 283 l 117 0 l 28 0 l 275 344 l 43 669 l 132 669 l 319 407 l 508 669 l 597 669 l 364 344 l 611 0 "},"у":{"ha":632,"x_min":0,"x_max":0,"o":"m 367 14 b 261 -208 329 -86 301 -157 b 75 -268 228 -251 171 -283 l 92 -197 b 285 1 190 -211 219 -168 l 33 669 l 111 669 l 322 101 l 535 669 l 613 669 "},"Б":{"ha":863,"x_min":0,"x_max":0,"o":"m 683 900 l 111 900 l 111 972 l 683 972 m 486 546 b 779 275 674 546 779 436 b 488 0 779 114 674 0 l 111 0 l 111 546 l 486 546 m 489 72 b 703 275 619 72 703 153 b 489 478 703 397 621 478 l 183 478 l 183 72 l 489 72 "},"Г":{"ha":646,"x_min":0,"x_max":0,"o":"m 111 847 l 183 775 l 183 276 l 111 276 m 111 149 l 183 149 l 183 0 l 111 0 m 632 972 l 632 900 l 256 900 l 183 972 "},"Д":{"ha":981,"x_min":0,"x_max":0,"o":"m 825 900 l 825 72 l 925 72 l 925 -176 l 853 -176 l 853 0 l 100 0 l 100 -176 l 28 -176 l 28 72 l 101 72 b 243 461 168 133 218 264 b 264 713 254 546 261 632 l 335 713 b 196 72 326 489 296 219 l 753 72 l 753 900 l 267 900 l 267 972 l 925 972 l 925 900 "},"Ж":{"ha":1368,"x_min":0,"x_max":0,"o":"m 719 297 l 719 0 l 647 0 l 647 297 l 50 972 l 147 972 l 683 365 l 1221 972 l 1318 972 m 719 686 l 647 686 l 647 972 l 719 972 m 1354 0 l 1265 0 l 972 431 l 1022 485 m 344 485 l 394 431 l 103 0 l 14 0 "},"Ё":{"ha":840,"x_min":0,"x_max":0,"o":"m 325 1144 l 254 1144 l 254 1215 l 325 1215 m 600 1144 l 529 1144 l 529 1215 l 600 1215 m 706 450 l 111 450 l 111 522 l 706 522 m 757 72 l 757 0 l 111 0 l 111 72 m 749 900 l 111 900 l 111 972 l 749 972 "},"З":{"ha":813,"x_min":0,"x_max":0,"o":"m 554 518 b 736 276 671 478 736 399 b 393 -10 736 121 604 -10 b 56 140 232 -10 111 56 l 121 179 b 393 65 169 108 265 65 b 661 281 568 65 661 163 b 393 476 661 397 574 476 l 256 476 l 256 549 l 393 549 b 611 732 542 549 611 638 b 389 906 611 828 543 906 b 186 906 386 906 267 906 l 186 769 l 114 769 l 114 981 l 389 981 b 686 736 582 981 686 869 b 554 518 686 640 632 558 "},"И":{"ha":963,"x_min":0,"x_max":0,"o":"m 183 182 l 839 981 l 851 981 l 851 0 l 779 0 l 779 796 l 122 -10 l 111 -10 l 111 972 l 183 972 "},"Й":{"ha":963,"x_min":0,"x_max":0,"o":"m 668 1143 l 318 1143 l 318 1215 l 668 1215 m 183 972 l 111 972 l 111 -10 l 122 -10 l 779 796 l 779 0 l 851 0 l 851 981 l 839 981 l 183 182 "},"Л":{"ha":951,"x_min":0,"x_max":0,"o":"m 910 972 l 910 900 l 810 900 l 810 450 l 738 450 l 738 900 l 324 900 b 163 31 322 501 306 143 b 14 0 115 -6 60 -12 l 31 69 b 117 88 67 61 92 67 b 251 958 251 194 251 672 l 251 972 m 738 261 l 810 261 l 810 0 l 738 0 "},"П":{"ha":990,"x_min":0,"x_max":0,"o":"m 111 450 l 183 450 l 183 0 l 111 0 m 949 900 l 849 900 l 849 0 l 776 0 l 776 900 l 111 900 l 111 972 l 949 972 "},"У":{"ha":775,"x_min":0,"x_max":0,"o":"m 789 972 l 369 0 l 290 0 l 407 269 l 28 972 l 108 972 l 446 360 l 710 972 "},"Ф":{"ha":1192,"x_min":0,"x_max":0,"o":"m 1107 486 b 632 76 1107 222 892 88 l 632 -40 l 560 -40 l 560 76 b 83 486 299 88 83 222 b 560 896 83 750 299 885 l 560 1013 l 632 1013 l 632 896 b 1107 486 892 885 1107 750 m 632 151 b 1028 486 846 163 1028 268 b 596 822 1028 715 825 822 b 163 486 365 822 163 715 b 560 151 163 268 344 163 l 560 450 l 632 450 l 632 151 "},"Ц":{"ha":979,"x_min":0,"x_max":0,"o":"m 804 275 l 732 275 l 732 972 l 804 972 m 924 72 l 924 -176 l 851 -176 l 851 0 l 111 0 l 111 696 l 183 696 l 183 72 m 183 824 l 111 824 l 111 972 l 183 972 "},"Ч":{"ha":896,"x_min":0,"x_max":0,"o":"m 785 972 l 785 0 l 713 0 l 713 379 l 97 379 l 97 972 l 169 972 l 169 451 l 713 451 l 713 972 "},"Ш":{"ha":1375,"x_min":0,"x_max":0,"o":"m 1264 972 l 1264 0 l 111 0 l 111 972 l 183 972 l 183 72 l 1192 72 l 1192 972 m 724 275 l 651 275 l 651 972 l 724 972 "},"Щ":{"ha":1440,"x_min":0,"x_max":0,"o":"m 1385 72 l 1385 -176 l 1313 -176 l 1313 0 l 111 0 l 111 696 l 185 696 l 185 72 l 1192 72 l 1192 972 l 1265 972 l 1265 72 m 651 275 l 651 972 l 725 972 l 725 275 m 185 824 l 111 824 l 111 972 l 185 972 "},"Ъ":{"ha":953,"x_min":0,"x_max":0,"o":"m 549 594 b 869 297 754 594 869 469 b 549 0 869 125 751 0 l 204 0 l 204 158 l 276 158 l 276 72 l 556 72 b 793 297 697 72 793 161 b 556 522 793 435 701 522 l 204 522 l 204 900 l 28 900 l 28 972 l 276 972 l 276 594 l 549 594 "},"Ы":{"ha":1114,"x_min":0,"x_max":0,"o":"m 457 594 b 776 297 663 594 776 469 b 457 0 776 125 658 0 l 111 0 l 111 158 l 183 158 l 183 72 l 463 72 b 701 297 604 72 701 161 b 463 522 701 435 608 522 l 111 522 l 111 972 l 183 972 l 183 594 l 457 594 m 1003 972 l 1003 824 l 931 824 l 931 972 m 931 696 l 1003 696 l 1003 0 l 931 0 "},"Ь":{"ha":861,"x_min":0,"x_max":0,"o":"m 456 594 b 778 297 661 594 778 469 b 456 0 778 125 657 0 l 111 0 l 111 158 l 185 158 l 185 72 l 461 72 b 701 297 603 72 701 161 b 461 522 701 435 607 522 l 111 522 l 111 972 l 185 972 l 185 594 l 456 594 "},"Э":{"ha":1025,"x_min":0,"x_max":0,"o":"m 471 981 b 942 485 746 981 942 761 b 471 -10 942 210 746 -10 b 69 217 294 -10 150 79 l 139 251 b 471 65 208 140 328 65 b 863 485 700 65 863 256 b 471 906 863 715 700 906 b 139 719 328 906 208 831 l 69 754 b 471 981 150 890 294 981 m 656 450 l 353 450 l 353 522 l 656 522 "},"Ю":{"ha":1447,"x_min":0,"x_max":0,"o":"m 892 981 b 1364 485 1168 981 1364 761 b 892 -10 1364 210 1168 -10 b 421 450 628 -10 438 192 l 183 450 l 183 0 l 111 0 l 111 972 l 183 972 l 183 522 l 421 522 b 892 981 438 781 628 981 m 892 65 b 1283 485 1121 65 1283 256 b 892 906 1283 715 1121 906 b 500 485 663 906 500 715 b 892 65 500 256 663 65 m 892 550 b 957 485 928 550 957 521 b 892 421 957 450 928 421 b 828 485 856 421 828 450 b 892 550 828 521 856 550 "},"Я":{"ha":850,"x_min":0,"x_max":0,"o":"m 739 972 l 739 814 l 667 814 l 667 900 l 388 900 b 150 675 246 900 150 813 b 388 450 150 538 242 450 l 739 450 l 739 0 l 665 0 l 665 378 l 393 378 b 340 381 376 378 357 379 l 125 0 l 42 0 l 267 397 b 74 675 143 438 74 542 b 393 972 74 847 192 972 "},"б":{"ha":733,"x_min":0,"x_max":0,"o":"m 372 669 b 678 335 563 669 678 525 b 364 -10 678 144 556 -10 b 63 288 190 -10 79 119 b 89 656 49 374 57 549 b 315 946 129 788 203 886 b 460 1003 369 974 418 989 b 590 1068 514 1019 553 1035 l 642 1018 b 482 933 594 972 540 953 b 350 882 440 921 397 908 b 128 542 200 800 146 669 b 372 669 182 617 267 669 m 364 60 b 604 335 517 60 604 183 b 368 600 604 488 521 600 b 133 335 217 600 133 488 b 364 60 133 183 213 60 "},"в":{"ha":693,"x_min":0,"x_max":0,"o":"m 517 347 b 624 186 585 321 624 264 b 422 0 624 76 536 0 l 97 0 l 97 669 l 386 669 b 588 485 511 669 588 594 b 517 347 588 424 561 376 m 169 597 l 169 371 l 386 371 b 511 485 454 371 511 406 b 386 597 511 563 458 597 m 422 72 b 547 186 490 72 547 107 b 422 299 547 264 494 299 l 169 299 l 169 72 l 422 72 "},"г":{"ha":551,"x_min":0,"x_max":0,"o":"m 510 597 l 156 597 l 156 0 l 83 0 l 83 669 l 510 669 "},"д":{"ha":764,"x_min":0,"x_max":0,"o":"m 708 72 l 708 -164 l 636 -164 l 636 0 l 86 0 l 86 -164 l 14 -164 l 14 72 l 78 72 b 192 644 151 161 192 371 l 192 669 l 610 669 l 610 72 m 538 72 l 538 597 l 264 597 b 165 72 263 456 246 215 "},"ж":{"ha":1043,"x_min":0,"x_max":0,"o":"m 696 299 l 558 299 l 558 0 l 486 0 l 486 299 l 347 299 l 108 0 l 14 0 l 294 349 l 58 669 l 149 669 l 368 371 l 486 371 l 486 669 l 558 669 l 558 371 l 676 371 l 894 669 l 986 669 l 749 349 l 1029 0 l 936 0 "},"ё":{"ha":728,"x_min":0,"x_max":0,"o":"m 239 775 b 188 826 211 775 188 799 b 239 878 188 856 211 878 b 290 826 267 878 290 856 b 239 775 290 799 267 775 m 493 775 b 442 826 464 775 442 799 b 493 878 442 856 464 878 b 543 826 521 878 543 856 b 493 775 543 799 521 775 m 131 299 b 385 60 146 164 244 60 b 590 182 478 60 547 111 l 653 151 b 385 -10 599 57 506 -10 b 56 335 193 -10 56 144 b 376 681 56 526 186 681 b 672 335 567 681 672 526 b 671 299 672 324 672 311 m 601 371 b 376 611 590 507 515 611 b 131 371 236 611 144 507 "},"з":{"ha":582,"x_min":0,"x_max":0,"o":"m 396 343 b 526 188 456 325 526 279 b 276 -10 526 83 439 -10 b 14 113 146 -10 50 56 l 72 147 b 267 58 100 108 171 58 b 449 185 383 58 449 114 b 268 301 449 264 383 301 l 190 301 l 190 375 l 285 375 b 424 494 368 375 424 415 b 269 611 424 574 351 611 b 86 532 193 611 128 576 l 40 578 b 269 679 83 625 163 679 b 496 494 403 679 496 604 b 396 343 496 426 457 371 "},"и":{"ha":742,"x_min":0,"x_max":0,"o":"m 644 669 l 644 0 l 571 0 l 571 547 l 165 0 l 97 0 l 97 669 l 169 669 l 169 119 l 575 669 "},"й":{"ha":742,"x_min":0,"x_max":0,"o":"m 381 751 b 208 922 264 751 208 844 l 272 922 b 381 815 272 861 318 815 b 488 922 442 815 488 861 l 551 922 b 381 751 551 844 496 751 m 644 669 l 644 0 l 571 0 l 571 547 l 165 0 l 97 0 l 97 669 l 169 669 l 169 119 l 575 669 "},"к":{"ha":667,"x_min":0,"x_max":0,"o":"m 319 299 l 169 299 l 169 0 l 97 0 l 97 669 l 169 669 l 169 371 l 299 371 l 518 669 l 608 669 l 372 349 l 653 0 l 558 0 "},"л":{"ha":697,"x_min":0,"x_max":0,"o":"m 600 669 l 600 0 l 528 0 l 528 597 l 254 597 b 144 29 253 293 232 103 b 14 0 106 -4 57 -8 l 28 72 b 99 85 67 64 88 75 b 182 625 172 146 182 381 l 182 669 "},"м":{"ha":890,"x_min":0,"x_max":0,"o":"m 793 669 l 793 0 l 721 0 l 721 535 l 469 169 l 421 169 l 169 535 l 169 0 l 97 0 l 97 669 l 161 669 l 444 251 l 729 669 "},"н":{"ha":742,"x_min":0,"x_max":0,"o":"m 644 669 l 644 0 l 572 0 l 572 299 l 169 299 l 169 0 l 97 0 l 97 669 l 169 669 l 169 371 l 572 371 l 572 669 "},"п":{"ha":740,"x_min":0,"x_max":0,"o":"m 643 669 l 643 0 l 571 0 l 571 597 l 169 597 l 169 0 l 97 0 l 97 669 "},"т":{"ha":615,"x_min":0,"x_max":0,"o":"m 574 597 l 343 597 l 343 0 l 271 0 l 271 597 l 42 597 l 42 669 l 574 669 "},"ф":{"ha":910,"x_min":0,"x_max":0,"o":"m 854 335 b 490 -8 854 138 719 4 l 490 -303 l 418 -303 l 418 -8 b 56 335 189 4 56 138 b 418 679 56 532 188 667 l 418 972 l 490 972 l 490 679 b 854 335 721 667 854 532 m 129 335 b 418 61 129 169 236 72 l 418 608 b 129 335 236 597 129 500 m 490 61 b 781 335 672 72 781 169 b 490 608 781 500 672 597 l 490 61 "},"ц":{"ha":786,"x_min":0,"x_max":0,"o":"m 731 72 l 731 -164 l 658 -164 l 658 0 l 97 0 l 97 669 l 169 669 l 169 72 l 560 72 l 560 669 l 632 669 l 632 72 "},"ч":{"ha":672,"x_min":0,"x_max":0,"o":"m 575 669 l 575 0 l 503 0 l 503 268 b 297 208 442 232 360 208 b 56 490 146 208 56 274 l 56 669 l 128 669 l 128 490 b 297 281 128 346 174 281 b 503 343 372 281 442 300 l 503 669 "},"ш":{"ha":1047,"x_min":0,"x_max":0,"o":"m 950 669 l 950 0 l 97 0 l 97 669 l 169 669 l 169 72 l 488 72 l 488 669 l 560 669 l 560 72 l 878 72 l 878 669 "},"щ":{"ha":1103,"x_min":0,"x_max":0,"o":"m 1047 72 l 1047 -164 l 975 -164 l 975 0 l 97 0 l 97 669 l 169 669 l 169 72 l 486 72 l 486 669 l 558 669 l 558 72 l 876 72 l 876 669 l 949 669 l 949 72 "},"ъ":{"ha":754,"x_min":0,"x_max":0,"o":"m 463 435 b 699 217 606 435 699 350 b 463 0 699 85 597 0 l 192 0 l 192 597 l 28 597 l 28 669 l 264 669 l 264 435 l 463 435 m 463 72 b 622 217 556 72 622 124 b 463 361 622 310 558 361 l 264 361 l 264 72 l 463 72 "},"ы":{"ha":878,"x_min":0,"x_max":0,"o":"m 781 669 l 781 0 l 708 0 l 708 669 m 367 435 b 604 217 511 435 604 350 b 367 0 604 85 501 0 l 97 0 l 97 669 l 169 669 l 169 435 l 367 435 m 367 72 b 528 217 460 72 528 124 b 367 361 528 310 464 361 l 169 361 l 169 72 l 367 72 "},"ь":{"ha":674,"x_min":0,"x_max":0,"o":"m 367 435 b 604 217 511 435 604 350 b 367 0 604 85 503 0 l 97 0 l 97 669 l 169 669 l 169 435 l 367 435 m 367 72 b 528 217 460 72 528 124 b 367 361 528 310 464 361 l 169 361 l 169 72 l 367 72 "},"э":{"ha":708,"x_min":0,"x_max":0,"o":"m 328 679 b 653 335 519 679 653 525 b 328 -10 653 144 519 -10 b 56 147 207 -10 111 53 l 119 178 b 328 60 161 106 235 60 b 578 299 468 60 563 164 l 243 299 l 243 371 l 578 371 b 328 610 563 506 468 610 b 119 493 235 610 161 564 l 56 522 b 328 679 111 617 207 679 "},"ю":{"ha":1031,"x_min":0,"x_max":0,"o":"m 654 679 b 975 335 844 679 975 525 b 654 -10 975 144 844 -10 b 331 299 475 -10 346 125 l 169 299 l 169 0 l 97 0 l 97 669 l 169 669 l 169 371 l 331 371 b 654 679 346 544 475 679 m 654 60 b 901 335 806 60 901 183 b 654 610 901 488 806 610 b 403 335 501 610 403 488 b 654 60 403 183 501 60 "},"я":{"ha":667,"x_min":0,"x_max":0,"o":"m 569 669 l 569 0 l 497 0 l 497 236 l 299 236 b 260 238 286 236 272 236 l 125 0 l 42 0 l 188 257 b 63 453 108 289 63 358 b 299 669 63 586 164 669 m 497 308 l 497 597 l 299 597 b 139 453 206 597 139 546 b 299 308 139 360 203 308 "},".":{"ha":269,"x_min":0,"x_max":0,"o":"m 135 90 b 186 39 163 90 186 67 b 135 -12 186 11 163 -12 b 83 39 106 -12 83 11 b 135 90 83 67 106 90 "},",":{"ha":260,"x_min":0,"x_max":0,"o":"m 204 72 l 107 -160 l 56 -160 l 117 72 "},"!":{"ha":325,"x_min":0,"x_max":0,"o":"m 135 242 l 122 972 l 203 972 l 190 242 m 163 90 b 214 39 192 90 214 67 b 163 -12 214 11 192 -12 b 111 39 135 -12 111 11 b 163 90 111 67 135 90 "},"?":{"ha":690,"x_min":0,"x_max":0,"o":"m 347 981 b 590 715 488 981 608 889 b 454 450 581 614 517 524 b 340 242 397 382 342 317 l 268 242 b 399 496 271 343 336 421 b 519 722 457 565 513 642 b 347 908 528 842 454 908 b 157 728 257 908 175 832 l 83 744 b 347 981 107 867 207 981 m 306 90 b 357 39 333 90 357 67 b 306 -12 357 11 333 -12 b 254 39 276 -12 254 11 b 306 90 254 67 276 90 "},":":{"ha":311,"x_min":0,"x_max":0,"o":"m 149 574 b 97 625 121 574 97 597 b 149 676 97 654 121 676 b 200 625 178 676 200 654 b 149 574 200 597 178 574 m 149 90 b 200 39 178 90 200 67 b 149 -12 200 11 178 -12 b 97 39 121 -12 97 11 b 149 90 97 67 121 90 "},";":{"ha":311,"x_min":0,"x_max":0,"o":"m 113 72 l 200 72 l 103 -160 l 53 -160 m 149 574 b 97 625 119 574 97 597 b 149 676 97 654 119 676 b 200 625 176 676 200 654 b 149 574 200 597 176 574 "},"#":{"ha":1058,"x_min":0,"x_max":0,"o":"m 779 594 l 731 361 l 939 361 l 924 289 l 715 289 l 656 0 l 581 0 l 642 289 l 346 289 l 285 0 l 211 0 l 272 289 l 56 289 l 71 361 l 288 361 l 336 594 l 119 594 l 135 668 l 351 668 l 415 972 l 489 972 l 425 668 l 721 668 l 785 972 l 860 972 l 794 668 l 1003 668 l 988 594 m 706 594 l 410 594 l 361 361 l 657 361 "},"$":{"ha":861,"x_min":0,"x_max":0,"o":"m 778 249 b 450 -10 778 96 639 -3 l 450 -140 l 378 -140 l 378 -8 b 56 207 243 4 100 65 l 124 231 b 431 63 157 122 269 63 b 706 249 543 63 706 103 b 408 453 706 375 593 410 b 76 714 251 489 76 539 b 378 981 76 885 215 975 l 378 1113 l 450 1113 l 450 978 b 733 769 601 963 706 886 l 664 746 b 392 908 643 849 543 908 b 149 714 225 908 149 824 b 425 524 149 603 250 561 b 778 249 703 464 778 392 "},"¢":{"ha":708,"x_min":0,"x_max":0,"o":"m 381 60 b 590 178 474 60 547 106 l 653 147 b 390 -10 600 56 507 -7 l 390 -140 l 318 -140 l 318 -4 b 56 335 161 25 56 165 b 318 674 56 504 161 644 l 318 810 l 390 810 l 390 679 b 653 522 507 676 600 615 l 590 493 b 381 610 547 564 474 610 b 129 335 229 610 129 488 b 381 60 129 183 229 60 "},"€":{"ha":1090,"x_min":0,"x_max":0,"o":"m 633 65 b 965 251 776 65 896 140 l 1035 217 b 633 -10 954 79 810 -10 b 175 364 400 -10 224 147 l 42 364 l 82 436 l 728 436 l 688 364 l 257 364 b 633 65 303 192 446 65 m 782 535 l 42 535 l 82 607 l 175 607 b 633 981 224 822 400 981 b 1035 754 810 981 954 892 l 965 719 b 633 906 896 831 776 906 b 257 607 446 906 303 778 l 822 607 "},"¥":{"ha":832,"x_min":0,"x_max":0,"o":"m 493 417 l 701 417 l 701 344 l 131 344 l 131 417 l 339 417 l 28 972 l 110 972 l 415 428 l 721 972 l 804 972 m 131 246 l 701 246 l 701 174 l 453 174 l 453 0 l 379 0 l 379 174 l 131 174 "},"£":{"ha":826,"x_min":0,"x_max":0,"o":"m 757 72 l 757 0 l 69 0 l 69 72 m 585 390 l 101 390 l 101 463 l 208 463 l 208 639 b 479 981 208 872 325 981 b 725 804 582 981 668 924 l 660 774 b 479 908 615 867 554 908 b 282 639 367 908 282 838 l 282 463 l 585 463 "},"¤":{"ha":911,"x_min":0,"x_max":0,"o":"m 754 497 b 692 314 754 428 731 365 l 814 193 l 764 142 l 642 263 b 456 199 590 222 526 199 b 271 263 386 199 322 222 l 149 142 l 97 193 l 219 314 b 157 497 181 365 157 428 b 219 679 157 565 181 629 l 97 800 l 149 851 l 271 731 b 456 794 322 771 386 794 b 642 731 526 794 590 771 l 764 851 l 814 800 l 692 679 b 754 497 731 629 754 565 m 456 278 b 668 497 578 278 668 375 b 456 717 668 618 578 717 b 244 497 335 717 244 618 b 456 278 244 375 335 278 "},"%":{"ha":1015,"x_min":0,"x_max":0,"o":"m 828 972 l 221 0 l 135 0 l 743 972 m 425 782 b 226 583 425 669 339 583 b 28 782 114 583 28 669 b 226 981 28 894 114 981 b 425 782 339 981 425 894 m 96 782 b 226 651 96 707 151 651 b 357 782 301 651 357 707 b 226 913 357 857 301 913 b 96 782 151 913 96 857 m 733 388 b 932 189 846 388 932 301 b 733 -10 932 76 846 -10 b 535 189 621 -10 535 76 b 733 388 535 301 621 388 m 733 58 b 864 189 808 58 864 115 b 733 319 864 264 808 319 b 603 189 660 319 603 264 b 733 58 603 115 660 58 "},"^":{"ha":636,"x_min":0,"x_max":0,"o":"m 485 586 l 318 896 l 151 586 l 69 586 l 278 972 l 360 972 l 567 586 "},"&":{"ha":957,"x_min":0,"x_max":0,"o":"m 868 1 b 718 135 863 7 801 60 b 367 -54 642 39 526 -54 b 44 279 124 -54 28 131 b 253 606 58 394 128 503 b 219 865 178 724 199 818 b 397 983 253 936 322 983 b 601 769 539 983 601 876 l 529 768 b 399 911 529 801 517 911 b 285 835 353 911 306 879 b 354 592 254 768 279 679 b 704 246 443 488 585 356 b 775 426 739 308 757 368 l 840 408 b 758 196 825 349 803 269 b 915 56 849 114 914 57 m 367 19 b 664 183 507 19 600 96 b 297 547 543 296 372 465 b 117 272 189 458 125 365 b 365 19 106 146 189 19 b 367 19 367 19 367 19 "},"*":{"ha":519,"x_min":0,"x_max":0,"o":"m 292 765 l 450 693 l 414 631 l 272 732 l 289 558 l 217 558 l 233 732 l 92 631 l 56 693 l 214 765 l 56 838 l 92 900 l 233 799 l 217 972 l 289 972 l 272 799 l 414 900 l 450 838 "},"(":{"ha":461,"x_min":0,"x_max":0,"o":"m 406 999 b 379 -187 139 681 126 126 l 324 -233 b 126 415 188 -65 118 165 b 350 1044 135 657 217 886 l 406 999 "},")":{"ha":461,"x_min":0,"x_max":0,"o":"m 138 1044 b 335 396 274 878 343 647 b 111 -233 326 156 244 -74 l 56 -187 b 82 1000 322 132 335 686 l 138 1044 "},"-":{"ha":653,"x_min":0,"x_max":0,"o":"m 556 463 l 556 390 l 97 390 l 97 463 "},"–":{"ha":733,"x_min":0,"x_max":0,"o":"m 636 463 l 636 390 l 97 390 l 97 463 "},"—":{"ha":854,"x_min":0,"x_max":0,"o":"m 757 463 l 757 390 l 97 390 l 97 463 "},"_":{"ha":740,"x_min":0,"x_max":0,"o":"m 726 -51 l 726 -124 l 14 -124 l 14 -51 "},"/":{"ha":576,"x_min":0,"x_max":0,"o":"m 535 1043 l 118 -214 l 42 -214 l 458 1043 "},"\\":{"ha":576,"x_min":0,"x_max":0,"o":"m 535 -214 l 458 -214 l 42 1043 l 118 1043 "},"«":{"ha":643,"x_min":0,"x_max":0,"o":"m 172 372 l 328 154 l 238 154 l 83 372 l 238 590 l 328 590 m 404 372 l 560 154 l 469 154 l 315 372 l 469 590 l 560 590 "},"»":{"ha":643,"x_min":0,"x_max":0,"o":"m 560 372 l 404 154 l 315 154 l 469 372 l 315 590 l 404 590 m 326 372 l 172 154 l 83 154 l 238 372 l 83 590 l 172 590 "},"[":{"ha":436,"x_min":0,"x_max":0,"o":"m 183 971 l 183 -142 l 381 -142 l 381 -214 l 111 -214 l 111 1043 l 381 1043 l 381 971 "},"]":{"ha":438,"x_min":0,"x_max":0,"o":"m 326 1043 l 326 -214 l 56 -214 l 56 -142 l 254 -142 l 254 971 l 56 971 l 56 1043 "},"|":{"ha":350,"x_min":0,"x_max":0,"o":"m 211 1043 l 211 -214 l 139 -214 l 139 1043 "},"¦":{"ha":350,"x_min":0,"x_max":0,"o":"m 139 265 l 211 265 l 211 -214 l 139 -214 m 211 1043 l 211 564 l 139 564 l 139 1043 "},"+":{"ha":733,"x_min":0,"x_max":0,"o":"m 636 390 l 403 390 l 403 157 l 331 157 l 331 390 l 97 390 l 97 463 l 331 463 l 331 696 l 403 696 l 403 463 l 636 463 "},"=":{"ha":733,"x_min":0,"x_max":0,"o":"m 97 343 l 636 343 l 636 269 l 97 269 m 636 569 l 636 497 l 97 497 l 97 569 "},"<":{"ha":671,"x_min":0,"x_max":0,"o":"m 574 608 l 179 418 l 574 226 l 574 147 l 97 378 l 97 458 l 574 689 "},">":{"ha":669,"x_min":0,"x_max":0,"o":"m 572 458 l 572 378 l 97 147 l 97 226 l 490 418 l 97 608 l 97 689 "},"÷":{"ha":733,"x_min":0,"x_max":0,"o":"m 636 463 l 636 390 l 97 390 l 97 463 m 367 610 b 317 661 339 610 317 633 b 367 713 317 690 339 713 b 418 661 396 713 418 690 b 367 610 418 633 396 610 m 367 242 b 418 190 396 242 418 218 b 367 139 418 161 396 139 b 317 190 339 139 317 161 b 367 242 317 218 339 242 "},"×":{"ha":667,"x_min":0,"x_max":0,"o":"m 385 425 l 569 242 l 518 190 l 333 375 l 149 190 l 97 242 l 282 426 l 99 611 l 150 661 l 333 476 l 518 661 l 569 610 "},"~":{"ha":794,"x_min":0,"x_max":0,"o":"m 697 458 b 524 346 665 386 593 342 b 382 394 469 350 421 374 b 272 433 344 414 310 435 b 168 369 218 432 192 401 l 97 392 b 269 506 119 428 167 503 b 415 458 326 508 375 481 b 521 418 450 440 483 421 b 628 481 581 415 610 449 "},"≈":{"ha":767,"x_min":0,"x_max":0,"o":"m 257 543 b 154 479 204 542 178 511 l 83 501 b 256 615 106 538 153 613 b 401 568 313 618 361 589 b 507 528 436 550 469 529 b 614 590 567 525 596 558 l 683 568 b 510 456 651 496 579 451 b 368 504 454 458 407 483 b 257 543 331 524 296 544 m 507 304 b 614 367 567 300 596 335 l 683 344 b 510 232 651 272 579 228 b 368 281 454 235 407 260 b 257 319 331 300 296 321 b 154 256 204 318 178 286 l 83 278 b 256 392 106 313 153 389 b 401 344 313 394 361 365 b 507 304 436 326 469 306 "},"≤":{"ha":671,"x_min":0,"x_max":0,"o":"m 574 669 l 181 478 l 574 288 l 574 207 l 97 438 l 97 519 l 574 750 m 97 143 l 574 143 l 574 71 l 97 71 "},"≥":{"ha":671,"x_min":0,"x_max":0,"o":"m 574 519 l 574 438 l 97 207 l 97 288 l 492 478 l 97 669 l 97 750 m 97 143 l 574 143 l 574 71 l 97 71 "},"−":{"ha":733,"x_min":0,"x_max":0,"o":"m 636 463 l 636 390 l 97 390 l 97 463 "},"‰":{"ha":1493,"x_min":0,"x_max":0,"o":"m 828 972 l 221 0 l 135 0 l 743 972 m 425 782 b 226 583 425 669 339 583 b 28 782 114 583 28 669 b 226 981 28 894 114 981 b 425 782 339 981 425 894 m 96 782 b 226 651 96 707 151 651 b 357 782 301 651 357 707 b 226 913 357 857 301 913 b 96 782 151 913 96 857 m 733 388 b 932 189 846 388 932 301 b 733 -10 932 76 846 -10 b 535 189 621 -10 535 76 b 733 388 535 301 621 388 m 733 58 b 864 189 808 58 864 115 b 733 319 864 264 808 319 b 603 189 660 319 603 264 b 733 58 603 115 660 58 m 1211 388 b 1410 189 1324 388 1410 301 b 1211 -10 1410 76 1324 -10 b 1013 189 1099 -10 1013 76 b 1211 388 1013 301 1099 388 m 1211 58 b 1342 189 1286 58 1342 115 b 1211 319 1342 264 1286 319 b 1081 189 1138 319 1081 264 b 1211 58 1081 115 1138 58 "},"°":{"ha":538,"x_min":0,"x_max":0,"o":"m 269 981 b 468 782 381 981 468 894 b 269 583 468 669 381 583 b 69 782 157 583 69 669 b 269 981 69 894 157 981 m 269 651 b 400 782 343 651 400 707 b 269 913 400 857 343 913 b 138 782 194 913 138 857 b 269 651 138 707 194 651 "},"≠":{"ha":733,"x_min":0,"x_max":0,"o":"m 450 497 l 365 342 l 636 342 l 636 269 l 326 269 l 236 106 l 154 106 l 244 269 l 97 269 l 97 342 l 283 342 l 368 497 l 97 497 l 97 569 l 408 569 l 497 733 l 581 733 l 490 569 l 636 569 l 636 497 "},"†":{"ha":582,"x_min":0,"x_max":0,"o":"m 540 647 l 328 647 l 328 0 l 256 0 l 256 647 l 42 647 l 42 719 l 256 719 l 256 972 l 328 972 l 328 719 l 540 719 "},"‡":{"ha":582,"x_min":0,"x_max":0,"o":"m 328 647 l 328 326 l 540 326 l 540 254 l 328 254 l 328 0 l 256 0 l 256 254 l 42 254 l 42 326 l 256 326 l 256 647 l 42 647 l 42 719 l 256 719 l 256 972 l 328 972 l 328 719 l 540 719 l 540 647 "},"{":{"ha":483,"x_min":0,"x_max":0,"o":"m 181 772 b 414 1039 181 978 246 1039 l 414 967 b 253 772 314 967 254 950 b 176 414 251 549 232 453 b 253 57 232 376 251 281 b 414 -137 254 -121 314 -137 l 414 -210 b 181 57 246 -210 181 -149 b 83 392 181 331 167 392 l 83 436 b 181 772 167 436 181 499 "},"}":{"ha":483,"x_min":0,"x_max":0,"o":"m 303 772 b 400 436 303 499 317 436 l 400 392 b 303 57 317 392 303 331 b 69 -210 303 -149 238 -210 l 69 -137 b 231 57 169 -137 229 -121 b 307 414 232 281 251 376 b 231 772 251 453 232 549 b 69 967 229 950 169 967 l 69 1039 b 303 772 238 1039 303 978 "},"§":{"ha":792,"x_min":0,"x_max":0,"o":"m 556 150 b 629 -28 601 108 633 53 b 396 -246 622 -153 528 -246 b 157 -56 265 -246 181 -158 l 225 -37 b 396 -174 240 -110 303 -174 b 557 -25 486 -174 553 -110 b 349 182 561 83 481 125 b 101 410 242 228 121 281 b 236 672 82 539 156 629 b 163 850 189 714 158 769 b 394 1068 169 975 264 1068 b 635 879 526 1068 610 981 l 565 860 b 394 996 550 932 489 996 b 235 847 304 996 238 932 b 442 640 231 739 310 697 b 690 413 549 594 671 542 b 556 150 710 283 636 193 m 172 421 b 378 249 186 331 279 290 b 483 199 413 233 450 218 b 619 401 553 218 636 290 b 414 574 606 492 513 532 b 307 624 378 589 342 606 b 172 421 238 604 156 533 "},"¶":{"ha":790,"x_min":0,"x_max":0,"o":"m 707 900 l 619 900 l 619 -214 l 546 -214 l 546 900 l 382 900 l 382 -214 l 310 -214 l 310 519 b 83 746 185 519 83 621 b 310 972 83 871 185 972 l 707 972 "},"©":{"ha":1158,"x_min":0,"x_max":0,"o":"m 579 981 b 1075 485 853 981 1075 758 b 579 -10 1075 211 853 -10 b 83 485 306 -10 83 211 b 579 981 83 758 306 981 m 579 58 b 1001 485 815 58 1001 250 b 579 913 1001 710 815 913 b 156 485 343 913 156 721 b 579 58 156 250 343 58 m 589 703 b 393 489 469 703 393 607 b 589 274 393 369 469 274 b 751 365 661 274 718 310 l 800 342 b 589 219 758 268 683 219 b 335 489 440 219 335 340 b 589 757 335 638 440 757 b 800 635 683 757 758 708 l 751 611 b 589 703 718 667 661 703 "},"®":{"ha":1157,"x_min":0,"x_max":0,"o":"m 579 981 b 1074 485 853 981 1074 758 b 579 -10 1074 211 853 -10 b 83 485 306 -10 83 211 b 579 981 83 758 306 981 m 579 58 b 1001 485 814 58 1001 250 b 579 913 1001 710 814 913 b 156 485 343 913 156 721 b 579 58 156 250 343 58 m 790 585 b 694 433 790 513 754 458 l 806 236 l 742 236 l 639 419 b 608 418 629 418 619 418 l 457 418 l 457 236 l 401 236 l 401 751 l 608 751 b 790 585 713 751 790 686 m 608 474 b 731 585 683 474 731 513 b 608 696 731 656 681 696 l 457 696 l 457 474 "},"¡":{"ha":310,"x_min":0,"x_max":0,"o":"m 190 439 l 201 -292 l 121 -292 l 133 439 m 161 590 b 111 642 133 590 111 614 b 161 693 111 671 133 693 b 213 642 190 693 213 671 b 161 590 213 614 190 590 "},"¿":{"ha":565,"x_min":0,"x_max":0,"o":"m 538 -64 b 274 -300 514 -186 415 -300 b 31 -35 133 -300 14 -208 b 167 231 40 68 104 157 b 281 439 225 300 279 364 l 353 439 b 222 185 351 338 286 260 b 103 -42 164 115 108 39 b 274 -228 93 -161 167 -228 b 464 -47 364 -228 446 -151 m 315 590 b 265 642 288 590 265 614 b 315 693 265 671 288 693 b 367 642 344 693 367 671 b 315 590 367 614 344 590 "},"”":{"ha":439,"x_min":0,"x_max":0,"o":"m 131 981 l 218 981 l 121 747 l 69 747 m 383 981 l 288 747 l 236 747 l 296 981 "},"“":{"ha":439,"x_min":0,"x_max":0,"o":"m 383 981 l 324 747 l 236 747 l 332 981 m 167 981 l 217 981 l 157 747 l 69 747 "},"±":{"ha":706,"x_min":0,"x_max":0,"o":"m 622 525 l 622 453 l 389 453 l 389 219 l 317 219 l 317 453 l 83 453 l 83 525 l 317 525 l 317 758 l 389 758 l 389 525 m 83 138 l 622 138 l 622 65 l 83 65 "},"\"":{"ha":389,"x_min":0,"x_max":0,"o":"m 69 981 l 157 981 l 138 747 l 90 747 m 319 981 l 300 747 l 253 747 l 232 981 "},"@":{"ha":1303,"x_min":0,"x_max":0,"o":"m 1215 369 b 1018 0 1238 128 1128 0 b 872 139 947 0 890 42 b 635 0 826 56 743 0 b 344 317 460 0 344 142 b 635 633 344 492 460 633 b 854 524 729 633 806 592 l 853 601 l 919 601 b 919 336 919 601 919 424 b 1017 64 919 138 949 64 b 1151 364 1089 64 1168 174 b 653 813 1129 640 935 813 b 157 392 396 813 201 647 b 313 -62 125 207 182 42 b 875 -121 461 -181 676 -203 l 900 -179 b 272 -114 757 -242 476 -274 b 93 403 122 6 58 194 b 653 876 140 679 340 876 b 1215 369 917 876 1183 729 m 635 64 b 849 317 774 64 849 178 b 635 569 849 457 774 569 b 413 317 494 569 413 457 b 635 64 413 178 494 64 "},"ß":{"ha":738,"x_min":0,"x_max":0,"o":"m 460 531 b 654 281 568 500 654 414 b 331 -10 654 125 547 -10 l 331 61 b 578 281 499 61 578 164 b 331 489 578 397 506 489 l 331 561 b 515 740 458 561 515 650 b 351 910 515 836 457 910 b 169 640 228 910 169 804 b 169 0 169 524 169 0 l 97 0 b 97 653 97 0 97 474 b 351 981 97 861 196 981 b 592 744 503 981 592 878 b 460 531 592 654 538 564 "},"œ":{"ha":1306,"x_min":0,"x_max":0,"o":"m 708 299 b 961 60 724 164 822 60 b 1167 178 1054 60 1124 106 l 1229 147 b 961 -10 1175 53 1082 -10 b 668 176 828 -10 721 65 b 381 -10 617 65 514 -10 b 56 335 190 -10 56 144 b 381 679 56 525 190 679 b 667 496 513 679 617 606 b 953 679 718 606 821 679 b 1250 335 1144 679 1250 525 b 1249 299 1250 322 1250 311 m 381 60 b 628 335 532 60 628 183 b 381 610 628 488 532 610 b 129 335 228 610 129 488 b 381 60 129 183 228 60 m 1179 371 b 953 610 1168 506 1093 610 b 708 371 814 610 722 506 "},"æ":{"ha":1206,"x_min":0,"x_max":0,"o":"m 608 299 b 861 60 624 164 722 60 b 1067 178 956 60 1024 106 l 1129 147 b 861 -10 1075 53 983 -10 b 569 172 731 -10 624 64 b 529 106 560 149 546 126 b 278 -10 485 51 401 -10 b 56 175 142 -10 56 64 b 310 378 56 299 143 353 b 529 467 494 406 529 410 b 347 608 529 544 463 608 b 154 478 211 608 164 531 l 83 494 b 347 681 100 579 176 681 b 589 535 461 681 556 638 b 854 679 644 622 738 679 b 1150 335 1044 679 1150 525 b 1149 299 1150 322 1150 311 m 529 343 b 306 306 489 335 392 318 b 128 171 185 288 128 250 b 282 63 128 104 183 63 b 529 288 397 63 529 146 m 1079 371 b 854 610 1068 506 993 610 b 608 371 714 610 622 506 "},"Æ":{"ha":1367,"x_min":0,"x_max":0,"o":"m 1283 72 l 1283 0 l 638 0 l 638 296 l 236 296 l 82 0 l 0 0 l 508 972 l 1275 972 l 1275 900 l 710 900 l 710 522 l 1233 522 l 1233 450 l 710 450 l 710 72 m 638 368 l 638 900 l 553 900 l 274 368 "},"Œ":{"ha":1507,"x_min":0,"x_max":0,"o":"m 1424 0 l 778 0 l 778 44 b 556 -10 714 10 638 -10 b 83 485 281 -10 83 210 b 556 981 83 761 281 981 b 778 926 638 981 714 961 l 778 972 l 1415 972 l 1415 900 l 850 900 l 850 522 l 1374 522 l 1374 450 l 850 450 l 850 72 l 1424 72 m 778 836 b 556 906 717 879 640 906 b 164 485 326 906 164 715 b 556 65 164 256 326 65 b 778 135 640 65 717 92 "},"ẞ":{"ha":847,"x_min":0,"x_max":0,"o":"m 468 613 b 764 313 669 589 764 467 b 393 -10 764 140 647 -10 l 393 63 b 692 313 599 63 692 181 b 393 549 692 444 613 549 l 393 617 l 589 900 b 382 900 532 900 451 900 b 197 632 249 900 197 794 b 197 0 197 515 197 0 l 125 0 b 125 647 125 0 125 469 b 382 972 125 850 219 972 b 665 972 535 972 665 972 l 665 900 l 468 613 "},"Ð":{"ha":1018,"x_min":0,"x_max":0,"o":"m 488 522 l 488 450 l 225 450 l 225 72 l 442 72 b 858 486 704 72 858 239 b 442 900 858 733 697 900 l 153 900 l 153 972 l 424 972 b 935 486 749 972 935 778 b 424 0 935 194 753 0 l 153 0 l 153 450 l 28 450 l 28 522 "},"đ":{"ha":826,"x_min":0,"x_max":0,"o":"m 826 783 l 692 783 l 692 0 l 619 0 l 619 121 b 376 -10 568 42 485 -10 b 56 335 185 -10 56 144 b 376 681 56 525 185 681 b 619 550 485 681 568 629 l 619 783 l 443 783 l 443 856 l 619 856 l 619 972 l 692 972 l 692 856 l 826 856 m 376 60 b 615 335 528 60 615 183 b 376 610 615 488 528 610 b 129 335 224 610 129 488 b 376 60 129 183 224 60 "},"ð":{"ha":822,"x_min":0,"x_max":0,"o":"m 613 828 b 738 388 717 690 746 533 b 404 -10 732 264 671 -1 b 57 325 214 -15 63 135 b 379 681 51 515 189 674 b 669 510 508 683 615 618 b 560 786 660 618 613 717 b 431 907 522 833 479 874 l 292 767 l 240 817 l 367 944 b 189 1003 313 972 253 992 l 201 1069 b 417 997 281 1056 353 1032 l 539 1121 l 592 1071 l 481 957 b 613 828 531 922 575 879 m 403 60 b 649 343 554 65 649 192 b 381 610 649 518 533 615 b 131 326 229 606 126 479 b 403 60 136 175 250 56 "},"Ø":{"ha":1110,"x_min":0,"x_max":0,"o":"m 907 822 b 1026 486 983 735 1026 617 b 556 -10 1026 210 831 -10 b 254 99 438 -10 333 31 l 143 -24 l 89 25 l 203 150 b 83 486 128 238 83 356 b 556 981 83 761 279 981 b 856 874 674 981 776 940 l 968 997 l 1021 949 l 907 822 m 163 486 b 256 210 163 381 197 283 l 803 815 b 556 906 738 871 653 906 b 163 486 325 906 163 715 m 556 65 b 947 486 785 65 947 256 b 854 763 947 592 913 689 l 307 157 b 556 65 372 100 458 65 "},"ø":{"ha":756,"x_min":0,"x_max":0,"o":"m 629 558 b 701 335 675 499 701 421 b 381 -10 701 144 571 -10 b 179 61 301 -10 233 17 l 103 -24 l 49 25 l 128 113 b 56 335 82 172 56 250 b 381 681 56 525 189 681 b 578 611 458 681 525 654 l 654 694 l 707 646 m 129 335 b 178 167 129 272 146 214 l 531 558 b 381 610 492 592 440 610 b 129 335 228 610 129 488 m 628 335 b 579 504 628 399 610 457 l 226 113 b 381 60 267 79 319 60 b 628 335 532 60 628 183 "},"Þ":{"ha":860,"x_min":0,"x_max":0,"o":"m 453 783 b 776 486 654 783 776 658 b 453 189 776 314 657 189 b 183 189 329 189 225 189 l 183 0 l 111 0 l 111 972 l 183 972 l 183 783 b 453 783 225 783 325 783 m 463 261 b 700 486 608 261 700 350 b 463 711 700 624 604 711 b 183 711 364 711 233 711 l 183 261 b 463 261 232 261 361 261 "},"þ":{"ha":778,"x_min":0,"x_max":0,"o":"m 399 681 b 722 335 589 681 722 525 b 399 -10 722 144 589 -10 b 156 121 289 -10 206 42 l 156 -303 l 83 -303 l 83 972 l 156 972 l 156 550 b 399 681 206 629 289 681 m 399 60 b 649 335 550 60 649 183 b 399 610 649 488 550 610 b 158 335 246 610 158 488 b 399 60 158 183 246 60 "},"Ł":{"ha":825,"x_min":0,"x_max":0,"o":"m 797 72 l 797 0 l 214 0 l 214 347 l 42 229 l 42 317 l 214 435 l 214 972 l 286 972 l 286 485 l 614 708 l 614 621 l 286 397 l 286 72 "},"ł":{"ha":439,"x_min":0,"x_max":0,"o":"m 425 29 b 257 1 372 -10 310 -21 b 179 192 201 24 179 58 l 179 458 l 28 354 l 28 443 l 179 546 l 179 1042 l 251 1042 l 251 594 l 401 699 l 401 610 l 251 507 l 251 193 b 294 65 251 96 265 75 b 399 83 325 54 368 63 "},"Ħ":{"ha":989,"x_min":0,"x_max":0,"o":"m 957 711 l 863 711 l 863 0 l 790 0 l 790 450 l 199 450 l 199 0 l 125 0 l 125 711 l 32 711 l 32 783 l 125 783 l 125 972 l 199 972 l 199 783 l 790 783 l 790 972 l 863 972 l 863 783 l 957 783 m 790 711 l 199 711 l 199 522 l 790 522 "},"ħ":{"ha":733,"x_min":0,"x_max":0,"o":"m 374 679 b 636 360 558 679 636 551 b 636 0 636 193 636 0 l 564 0 b 564 360 564 0 564 207 b 374 607 564 536 488 607 b 172 360 264 607 172 538 l 172 0 l 100 0 l 100 783 l 0 783 l 0 856 l 100 856 l 100 972 l 172 972 l 172 856 l 331 856 l 331 783 l 172 783 l 172 572 b 374 679 217 640 286 679 "},"Ŋ":{"ha":976,"x_min":0,"x_max":0,"o":"m 858 0 l 858 -62 b 764 -261 858 -186 819 -240 b 588 -226 711 -282 642 -268 l 628 -176 b 731 -194 657 -199 700 -207 b 786 -65 754 -185 786 -162 l 786 6 l 190 853 l 190 0 l 118 0 l 118 972 l 186 972 l 786 126 l 786 972 l 858 972 "},"ŋ":{"ha":731,"x_min":0,"x_max":0,"o":"m 633 -62 b 539 -261 633 -186 594 -240 b 364 -226 486 -282 417 -268 l 403 -176 b 506 -194 432 -199 476 -207 b 561 -65 529 -185 561 -162 b 561 360 561 -65 561 246 b 372 608 561 536 485 608 b 169 360 263 608 169 538 l 169 0 l 97 0 l 97 669 l 169 669 l 169 572 b 372 681 214 640 283 681 b 633 360 557 681 633 551 "},"Ŧ":{"ha":732,"x_min":0,"x_max":0,"o":"m 403 900 l 403 571 l 638 571 l 638 499 l 403 499 l 403 0 l 331 0 l 331 499 l 94 499 l 94 571 l 331 571 l 331 900 l 14 900 l 14 972 l 718 972 l 718 900 "},"ŧ":{"ha":433,"x_min":0,"x_max":0,"o":"m 419 44 b 229 0 360 -10 282 -19 b 132 196 174 22 132 72 l 132 347 l 68 347 l 68 419 l 132 419 l 132 597 l 28 597 l 28 669 l 132 669 l 132 842 l 204 861 l 204 669 l 357 669 l 357 597 l 204 597 l 204 419 l 321 419 l 321 347 l 204 347 l 204 193 b 260 68 204 97 236 78 b 379 99 294 54 343 67 "},"₽":{"ha":911,"x_min":0,"x_max":0,"o":"m 532 972 b 856 675 733 972 856 847 b 532 378 856 503 736 378 l 69 378 l 69 450 b 190 450 69 450 121 450 l 190 972 l 532 972 m 542 450 b 779 675 688 450 779 538 b 542 900 779 813 683 900 b 263 900 443 900 313 900 l 263 450 b 542 450 364 450 478 450 m 69 272 l 628 272 l 628 200 l 263 200 l 263 0 l 190 0 l 190 200 l 69 200 "},"№":{"ha":1463,"x_min":0,"x_max":0,"o":"m 1181 981 b 1379 782 1293 981 1379 894 b 1181 583 1379 669 1293 583 b 982 782 1068 583 982 669 b 1181 981 982 894 1068 981 m 1181 651 b 1311 782 1254 651 1311 707 b 1181 913 1311 856 1254 913 b 1050 782 1106 913 1050 856 b 1181 651 1050 707 1106 651 m 1379 408 l 1379 481 l 986 481 l 986 408 m 779 972 l 851 972 l 851 -10 l 839 -10 l 183 796 l 183 0 l 111 0 l 111 981 l 124 981 l 779 182 "},"Є":{"ha":1025,"x_min":0,"x_max":0,"o":"m 554 981 b 956 754 731 981 875 890 l 886 719 b 554 906 817 831 697 906 b 163 485 325 906 163 715 b 554 65 163 256 325 65 b 886 251 697 65 817 140 l 956 217 b 554 -10 875 79 731 -10 b 83 485 279 -10 83 210 b 554 981 83 761 279 981 m 369 522 l 672 522 l 672 450 l 369 450 "},"Ґ":{"ha":646,"x_min":0,"x_max":0,"o":"m 632 1149 l 632 900 l 183 900 l 183 0 l 111 0 l 111 972 l 560 972 l 560 1149 "},"љ":{"ha":1100,"x_min":0,"x_max":0,"o":"m 793 435 b 1031 217 938 435 1031 350 b 793 0 1031 85 929 0 l 524 0 l 524 597 l 254 597 b 144 29 253 293 233 103 b 14 0 106 -4 57 -8 l 28 72 b 99 85 68 64 88 75 b 182 625 172 146 182 381 l 182 669 l 596 669 l 596 435 l 793 435 m 793 72 b 954 217 888 72 954 124 b 793 361 954 310 890 361 l 596 361 l 596 72 l 793 72 "},"Љ":{"ha":1472,"x_min":0,"x_max":0,"o":"m 1083 594 b 1403 297 1288 594 1403 469 b 1083 0 1403 125 1285 0 l 738 0 l 738 900 l 324 900 b 163 31 322 503 306 143 b 14 0 115 -6 60 -12 l 31 69 b 117 88 67 61 92 68 b 251 958 251 194 251 672 l 251 972 l 810 972 l 810 594 l 1083 594 m 1089 72 b 1328 297 1231 72 1328 161 b 1089 522 1328 435 1235 522 l 810 522 l 810 72 l 1089 72 "},"Њ":{"ha":1503,"x_min":0,"x_max":0,"o":"m 1114 522 b 1433 265 1318 522 1433 438 b 1114 0 1433 93 1315 0 l 776 0 l 776 450 l 183 450 l 183 0 l 111 0 l 111 972 l 183 972 l 183 522 l 776 522 l 776 972 l 849 972 l 849 522 l 1114 522 m 1119 72 b 1358 265 1261 72 1358 129 b 1119 450 1358 403 1265 450 l 849 450 l 849 72 l 1119 72 "},"Ћ":{"ha":983,"x_min":0,"x_max":0,"o":"m 619 636 b 886 319 804 636 886 511 b 886 0 886 153 886 0 l 814 0 b 814 319 814 0 814 167 b 619 564 814 496 733 564 b 401 468 518 564 442 513 l 401 0 l 329 0 l 329 900 l 14 900 l 14 972 l 717 972 l 717 900 l 401 900 l 401 557 b 619 636 446 594 540 636 "},"ђ":{"ha":733,"x_min":0,"x_max":0,"o":"m 636 -64 b 539 -261 636 -186 594 -240 b 365 -226 486 -282 419 -268 l 406 -176 b 508 -194 435 -199 478 -208 b 564 -65 531 -185 564 -162 l 564 360 b 374 607 564 536 488 607 b 172 360 265 607 172 538 l 172 0 l 100 0 l 100 783 l 0 783 l 0 856 l 100 856 l 100 972 l 172 972 l 172 856 l 331 856 l 331 783 l 172 783 l 172 572 b 374 679 217 640 286 679 b 636 360 560 679 636 551 "},"Ђ":{"ha":965,"x_min":0,"x_max":0,"o":"m 882 194 b 785 -4 882 71 840 18 b 611 31 732 -24 665 -10 l 650 82 b 753 63 681 60 724 50 b 810 192 776 72 810 96 l 810 319 b 615 564 810 496 729 564 b 401 468 514 564 442 513 l 401 0 l 329 0 l 329 900 l 14 900 l 14 972 l 717 972 l 717 900 l 401 900 l 401 557 b 615 636 444 594 536 636 b 882 319 800 636 882 511 "},"Џ":{"ha":915,"x_min":0,"x_max":0,"o":"m 804 972 l 804 0 l 494 0 l 494 -176 l 422 -176 l 422 0 l 111 0 l 111 972 l 183 972 l 183 72 l 732 72 l 732 972 "},"є":{"ha":708,"x_min":0,"x_max":0,"o":"m 381 60 b 589 178 474 60 547 107 l 653 147 b 381 -10 597 53 501 -10 b 56 335 189 -10 56 144 b 381 679 56 525 189 679 b 653 524 501 679 597 617 l 589 493 b 381 610 547 564 474 610 b 131 371 240 610 146 506 l 465 371 l 465 299 l 131 299 b 381 60 146 164 240 60 "},"ґ":{"ha":551,"x_min":0,"x_max":0,"o":"m 510 835 l 510 597 l 156 597 l 156 0 l 83 0 l 83 669 l 438 669 l 438 835 "},"њ":{"ha":1146,"x_min":0,"x_max":0,"o":"m 829 371 b 1063 189 974 371 1063 310 b 829 0 1063 68 964 0 l 571 0 l 571 299 l 169 299 l 169 0 l 97 0 l 97 669 l 169 669 l 169 371 l 571 371 l 571 669 l 644 669 l 644 371 l 829 371 m 829 72 b 986 189 922 72 986 104 b 829 299 986 274 926 299 l 644 299 l 644 72 l 829 72 "},"ћ":{"ha":733,"x_min":0,"x_max":0,"o":"m 374 679 b 636 360 558 679 636 551 b 636 0 636 193 636 0 l 564 0 b 564 360 564 0 564 207 b 374 607 564 536 488 607 b 172 360 264 607 172 538 l 172 0 l 100 0 l 100 783 l 0 783 l 0 856 l 100 856 l 100 972 l 172 972 l 172 856 l 331 856 l 331 783 l 172 783 l 172 572 b 374 679 217 640 286 679 "},"џ":{"ha":729,"x_min":0,"x_max":0,"o":"m 632 669 l 632 0 l 400 0 l 400 -164 l 328 -164 l 328 0 l 97 0 l 97 669 l 169 669 l 169 72 l 560 72 l 560 669 "},"І":{"ha":294,"x_min":0,"x_max":0,"o":"m 183 972 l 183 824 l 111 824 l 111 972 m 111 696 l 183 696 l 183 0 l 111 0 "},"і":{"ha":283,"x_min":0,"x_max":0,"o":"m 99 669 l 171 669 l 171 0 l 99 0 m 135 900 b 186 849 163 900 186 878 b 135 797 186 821 163 797 b 83 849 106 797 83 821 b 135 900 83 878 106 900 "},"Ј":{"ha":592,"x_min":0,"x_max":0,"o":"m 481 696 b 481 285 481 696 481 425 b 250 -10 481 76 383 -10 b 39 74 144 -10 68 38 l 88 124 b 244 63 115 93 172 63 b 408 278 339 63 408 128 b 408 696 408 371 408 696 m 481 972 b 481 824 481 972 481 911 l 408 824 b 408 972 408 911 408 972 l 481 972 "},"ј":{"ha":342,"x_min":0,"x_max":0,"o":"m 215 669 l 215 -110 b 111 -304 215 -232 168 -287 b -67 -269 63 -318 -12 -310 l -28 -217 b 78 -237 3 -237 49 -244 b 143 -111 104 -232 143 -207 l 143 669 m 179 900 b 231 849 207 900 231 878 b 179 797 231 821 207 797 b 128 849 150 797 128 821 b 179 900 128 878 150 900 "},"Ѕ":{"ha":876,"x_min":0,"x_max":0,"o":"m 139 231 b 243 106 156 176 192 133 l 213 43 b 69 207 147 78 93 131 l 139 231 m 440 524 b 793 249 718 464 793 392 b 446 -11 793 90 646 -11 b 403 -10 432 -11 417 -11 l 438 61 b 446 61 440 61 443 61 b 721 249 558 61 721 104 b 424 454 721 375 608 413 b 90 715 267 492 90 539 b 408 982 90 890 239 982 b 500 974 442 982 472 978 l 454 907 b 407 910 439 908 424 910 b 163 715 240 910 163 824 b 440 524 163 603 265 561 "},"ѕ":{"ha":600,"x_min":0,"x_max":0,"o":"m 292 681 b 517 540 410 681 490 625 l 450 510 b 290 608 436 569 379 608 b 143 486 196 608 139 565 b 313 378 147 428 204 404 b 544 181 422 351 544 318 b 310 -11 544 51 431 -11 b 56 143 156 -11 82 63 l 122 174 b 310 61 140 103 206 61 b 472 181 388 61 472 94 b 294 307 472 256 414 278 b 71 486 154 343 76 383 b 292 681 65 600 144 681 "},"'":{"ha":226,"x_min":0,"x_max":0,"o":"m 69 981 l 157 981 l 138 747 l 90 747 "},"’":{"ha":274,"x_min":0,"x_max":0,"o":"m 131 981 l 218 981 l 121 747 l 69 747 "},"‘":{"ha":272,"x_min":0,"x_max":0,"o":"m 167 981 l 217 981 l 157 747 l 69 747 "}," ":{"ha":389,"x_min":0,"x_max":0,"o":""},"´":{"ha":361,"x_min":0,"x_max":0,"o":"m 278 972 l 140 783 l 83 783 l 190 972 "},"˚":{"ha":440,"x_min":0,"x_max":0,"o":"m 219 1058 b 357 921 299 1058 357 999 b 219 783 357 843 299 783 b 83 921 142 783 83 843 b 219 1058 83 999 142 1058 m 219 842 b 299 921 265 842 299 875 b 219 999 299 967 265 999 b 142 921 175 999 142 967 b 219 842 142 875 175 842 "},"˙":{"ha":268,"x_min":0,"x_max":0,"o":"m 133 924 b 185 872 163 924 185 900 b 133 821 185 844 163 821 b 83 872 106 821 83 844 b 133 924 83 900 106 924 "},"˘":{"ha":493,"x_min":0,"x_max":0,"o":"m 410 958 b 247 786 410 865 344 786 b 83 958 156 786 88 854 l 149 958 b 247 851 149 897 190 851 b 344 958 301 851 344 897 "},"¨":{"ha":481,"x_min":0,"x_max":0,"o":"m 135 924 b 186 872 164 924 186 900 b 135 821 186 844 164 821 b 83 872 107 821 83 844 b 135 924 83 900 107 924 m 346 924 b 397 872 374 924 397 900 b 346 821 397 844 374 821 b 294 872 318 821 294 844 b 346 924 294 900 318 924 "},"ˆ":{"ha":543,"x_min":0,"x_max":0,"o":"m 83 783 l 236 972 l 307 972 l 460 783 l 369 783 l 272 917 l 174 783 "},"ˇ":{"ha":543,"x_min":0,"x_max":0,"o":"m 460 972 l 307 783 l 236 783 l 83 972 l 174 972 l 271 839 l 369 972 "},"`":{"ha":278,"x_min":0,"x_max":0,"o":"m 236 783 l 179 783 l 42 972 l 129 972 "},"˜":{"ha":617,"x_min":0,"x_max":0,"o":"m 533 893 b 411 774 517 831 479 768 b 226 863 324 781 278 863 b 143 796 189 863 167 836 l 83 829 b 228 931 107 876 147 936 b 406 844 314 925 356 850 b 469 911 439 840 456 868 "},"¯":{"ha":515,"x_min":0,"x_max":0,"o":"m 432 940 l 432 868 l 83 868 l 83 940 "},"¸":{"ha":400,"x_min":0,"x_max":0,"o":"m 193 -78 b 317 -172 279 -67 317 -118 b 261 -268 317 -211 296 -249 b 83 -253 210 -297 144 -290 l 108 -206 b 250 -204 163 -244 226 -240 b 229 -124 271 -175 264 -137 b 167 -131 213 -118 185 -117 l 121 -97 l 168 0 l 231 0 l 193 -78 "},"˛":{"ha":354,"x_min":0,"x_max":0,"o":"m 271 -269 b 207 -282 250 -278 228 -282 b 85 -157 139 -282 78 -235 b 190 0 92 -82 157 -21 l 258 0 b 147 -165 201 -31 131 -106 b 271 -189 163 -218 232 -222 "},"":{"ha":293,"x_min":0,"x_max":0,"o":"m 210 -107 l 133 -289 l 83 -289 l 129 -107 "},"Ą":{"ha":860,"x_min":0,"x_max":0,"o":"m 836 -269 b 772 -282 814 -278 793 -282 b 650 -157 704 -282 643 -235 b 756 0 657 -82 722 -19 l 750 0 l 426 851 l 101 0 l 24 0 l 396 972 l 457 972 l 828 0 l 824 0 b 713 -165 767 -31 696 -106 b 836 -189 728 -218 796 -222 "},"Ç":{"ha":1025,"x_min":0,"x_max":0,"o":"m 556 65 b 886 251 699 65 817 140 l 956 217 b 568 -10 878 83 739 -6 l 535 -78 b 658 -172 621 -67 658 -118 b 604 -268 658 -211 638 -249 b 425 -253 553 -297 486 -290 l 450 -206 b 593 -204 504 -244 568 -240 b 571 -124 613 -175 607 -137 b 510 -131 556 -118 528 -117 l 463 -97 l 507 -8 b 83 486 257 17 83 226 b 556 981 83 761 279 981 b 956 754 732 981 875 892 l 886 719 b 556 906 817 831 699 906 b 163 486 325 906 163 715 b 556 65 163 256 325 65 m 494 483 b 560 549 494 519 524 549 b 624 483 594 549 624 519 b 560 419 624 449 594 419 b 494 483 524 419 494 449 "},"Ę":{"ha":840,"x_min":0,"x_max":0,"o":"m 706 450 l 111 450 l 111 522 l 706 522 m 749 900 l 111 900 l 111 972 l 749 972 m 769 -269 b 706 -282 749 -278 726 -282 b 583 -157 638 -282 576 -235 b 689 0 590 -82 656 -19 l 111 0 l 111 72 l 757 72 l 757 0 b 646 -165 700 -31 629 -106 b 769 -189 661 -218 731 -222 "},"Į":{"ha":294,"x_min":0,"x_max":0,"o":"m 188 824 l 115 824 l 115 972 l 188 972 m 199 -269 b 135 -282 178 -278 156 -282 b 13 -157 67 -282 6 -235 b 118 0 19 -82 85 -19 l 115 0 l 115 696 l 188 696 l 188 0 l 186 0 b 75 -165 129 -31 58 -106 b 199 -189 90 -218 160 -222 "},"Ş":{"ha":876,"x_min":0,"x_max":0,"o":"m 139 231 b 243 106 156 176 192 133 l 213 42 b 69 207 147 76 93 131 l 139 231 m 793 249 b 464 -11 793 96 654 -6 l 431 -78 b 554 -172 517 -67 554 -118 b 500 -268 554 -211 533 -249 b 321 -253 449 -297 382 -290 l 346 -206 b 489 -204 400 -244 464 -240 b 467 -124 508 -175 503 -137 b 404 -131 451 -118 424 -117 l 358 -97 l 439 61 b 446 61 443 61 443 61 b 719 249 558 61 719 104 b 424 453 719 375 608 411 b 90 715 267 490 90 539 b 408 982 90 890 239 982 b 500 974 440 982 472 978 l 454 907 b 407 910 439 908 424 910 b 163 715 240 910 163 824 b 440 524 163 603 265 561 b 793 249 718 464 793 392 "},"Ų":{"ha":918,"x_min":0,"x_max":0,"o":"m 821 972 l 821 483 l 749 514 l 749 972 m 464 63 b 747 363 617 63 738 154 l 818 332 b 657 42 803 190 743 94 b 521 -165 601 8 508 -100 b 644 -189 532 -218 606 -222 l 644 -269 b 581 -282 624 -278 601 -282 b 458 -157 513 -282 451 -235 b 558 1 464 -90 521 -26 b 464 -10 528 -7 496 -10 b 97 404 264 -10 97 113 l 97 696 l 169 696 l 169 392 b 464 63 169 163 303 63 m 169 824 l 97 824 l 97 972 l 169 972 "},"ą":{"ha":697,"x_min":0,"x_max":0,"o":"m 613 -269 b 549 -282 590 -278 569 -282 b 425 -157 481 -282 418 -235 b 531 0 432 -82 499 -21 l 528 0 l 528 106 b 278 -10 472 38 385 -10 b 56 175 140 -10 56 64 b 310 378 56 300 143 353 b 528 467 493 406 528 410 b 347 608 528 544 463 608 b 154 478 210 608 163 531 l 83 494 b 347 681 100 579 176 681 b 601 450 488 681 601 614 l 601 0 l 599 0 b 489 -165 543 -31 472 -106 b 613 -189 504 -218 572 -222 m 528 343 b 306 306 489 335 392 318 b 128 171 185 288 128 250 b 282 63 128 104 183 63 b 528 288 397 63 528 146 "},"ç":{"ha":708,"x_min":0,"x_max":0,"o":"m 381 60 b 589 178 474 60 547 106 l 653 147 b 396 -10 600 57 510 -4 l 363 -78 b 486 -172 449 -67 486 -118 b 432 -268 486 -211 465 -249 b 253 -253 381 -297 314 -290 l 278 -206 b 421 -204 332 -244 396 -240 b 399 -124 440 -175 435 -137 b 336 -131 382 -118 354 -117 l 290 -97 l 335 -7 b 56 335 168 15 56 160 b 381 679 56 525 189 679 b 653 522 501 679 597 617 l 589 493 b 381 610 547 564 474 610 b 129 335 228 610 129 488 b 381 60 129 183 228 60 "},"ę":{"ha":728,"x_min":0,"x_max":0,"o":"m 131 299 b 385 60 146 164 244 60 b 590 178 478 60 547 106 l 653 147 b 540 31 625 99 588 58 b 419 -165 485 -10 407 -106 b 543 -190 431 -219 503 -222 l 543 -269 b 479 -282 521 -278 500 -282 b 356 -158 411 -282 349 -236 b 453 -3 363 -94 414 -32 b 385 -10 431 -7 408 -10 b 56 335 193 -10 56 144 b 376 679 56 525 186 679 b 672 335 567 679 672 525 b 671 299 672 322 672 311 m 601 371 b 376 610 590 506 515 610 b 131 371 236 610 144 506 "},"į":{"ha":283,"x_min":0,"x_max":0,"o":"m 142 819 b 90 871 114 819 90 843 b 142 922 90 899 114 922 b 193 871 169 922 193 899 b 142 819 193 843 169 819 m 65 -165 b 189 -189 81 -218 149 -222 l 189 -269 b 125 -282 167 -278 146 -282 b 1 -157 57 -282 -6 -235 b 107 0 8 -82 75 -21 l 106 0 l 106 669 l 178 669 l 178 0 l 175 0 b 65 -165 119 -31 49 -106 "},"ş":{"ha":599,"x_min":0,"x_max":0,"o":"m 543 179 b 329 -11 543 60 439 -3 l 296 -78 b 419 -172 382 -67 419 -118 b 365 -268 419 -211 399 -249 b 186 -253 314 -297 247 -290 l 211 -206 b 354 -204 265 -244 329 -240 b 332 -124 374 -175 368 -137 b 271 -131 317 -118 289 -117 l 224 -97 l 268 -10 b 56 142 142 3 79 69 l 122 174 b 310 61 139 103 204 61 b 471 179 386 61 471 93 b 294 307 471 256 414 278 b 71 486 154 343 76 383 b 290 679 64 600 144 679 b 517 540 408 679 490 625 l 450 510 b 289 607 435 568 379 607 b 143 486 196 607 138 564 b 311 378 146 428 204 403 b 543 179 421 351 543 318 "},"ų":{"ha":685,"x_min":0,"x_max":0,"o":"m 601 669 b 601 310 601 669 601 476 b 451 11 601 164 556 56 l 451 11 b 332 -165 394 -19 315 -106 b 456 -189 347 -218 415 -222 l 456 -269 b 390 -282 433 -278 413 -282 b 268 -157 324 -282 261 -235 b 361 -10 274 -90 326 -35 b 336 -10 353 -10 344 -10 b 69 310 151 -10 69 118 b 69 669 69 476 69 669 l 142 669 b 142 310 142 669 142 463 b 336 63 142 133 222 63 b 529 310 450 63 529 133 b 529 669 529 463 529 669 "},"˝":{"ha":554,"x_min":0,"x_max":0,"o":"m 278 972 l 140 783 l 83 783 l 190 972 m 471 972 l 333 783 l 276 783 l 383 972 "},"Đ":{"ha":1018,"x_min":0,"x_max":0,"o":"m 488 522 l 488 450 l 225 450 l 225 72 l 442 72 b 858 486 704 72 858 239 b 442 900 858 733 697 900 l 153 900 l 153 972 l 424 972 b 935 486 749 972 935 778 b 424 0 935 194 753 0 l 153 0 l 153 450 l 28 450 l 28 522 "},"Á":{"ha":860,"x_min":0,"x_max":0,"o":"m 832 0 l 754 0 l 429 851 l 106 0 l 28 0 l 399 972 l 461 972 m 615 1250 l 478 1061 l 421 1061 l 528 1250 "},"Ă":{"ha":860,"x_min":0,"x_max":0,"o":"m 832 0 l 754 0 l 429 851 l 106 0 l 28 0 l 399 972 l 461 972 m 585 1236 b 422 1064 585 1143 519 1064 b 258 1236 331 1064 263 1132 l 324 1236 b 422 1129 324 1175 365 1129 b 519 1236 476 1129 519 1175 "},"Â":{"ha":860,"x_min":0,"x_max":0,"o":"m 832 0 l 754 0 l 429 851 l 106 0 l 28 0 l 399 972 l 461 972 m 233 1061 l 386 1250 l 457 1250 l 610 1061 l 519 1061 l 422 1194 l 324 1061 "},"À":{"ha":860,"x_min":0,"x_max":0,"o":"m 832 0 l 754 0 l 429 851 l 106 0 l 28 0 l 399 972 l 461 972 m 450 1061 l 393 1061 l 256 1250 l 343 1250 "},"Ä":{"ha":860,"x_min":0,"x_max":0,"o":"m 832 0 l 754 0 l 429 851 l 106 0 l 28 0 l 399 972 l 461 972 m 315 1201 b 367 1150 344 1201 367 1178 b 315 1099 367 1122 344 1099 b 264 1150 288 1099 264 1122 b 315 1201 264 1178 288 1201 m 526 1201 b 578 1150 554 1201 578 1178 b 526 1099 578 1122 554 1099 b 475 1150 499 1099 475 1122 b 526 1201 475 1178 499 1201 "},"Ā":{"ha":860,"x_min":0,"x_max":0,"o":"m 832 0 l 754 0 l 429 851 l 106 0 l 28 0 l 399 972 l 461 972 m 596 1218 l 596 1146 l 247 1146 l 247 1218 "},"Å":{"ha":860,"x_min":0,"x_max":0,"o":"m 832 0 l 754 0 l 429 851 l 106 0 l 28 0 l 399 972 l 461 972 m 421 1336 b 558 1199 500 1336 558 1276 b 421 1061 558 1121 500 1061 b 285 1199 343 1061 285 1121 b 421 1336 285 1276 343 1336 m 421 1119 b 500 1199 467 1119 500 1153 b 421 1276 500 1244 467 1276 b 343 1199 376 1276 343 1244 b 421 1119 343 1153 376 1119 "},"Ã":{"ha":860,"x_min":0,"x_max":0,"o":"m 832 0 l 754 0 l 429 851 l 106 0 l 28 0 l 399 972 l 461 972 m 647 1171 b 525 1051 631 1108 593 1046 b 340 1140 438 1058 392 1140 b 257 1074 303 1140 281 1114 l 197 1107 b 342 1208 221 1154 261 1214 b 519 1122 428 1203 469 1128 b 583 1189 553 1118 569 1146 "},"Ǽ":{"ha":1367,"x_min":0,"x_max":0,"o":"m 1283 72 l 1283 0 l 638 0 l 638 296 l 236 296 l 82 0 l 0 0 l 508 972 l 1275 972 l 1275 900 l 710 900 l 710 522 l 1233 522 l 1233 450 l 710 450 l 710 72 m 638 368 l 638 900 l 553 900 l 274 368 m 846 1250 l 708 1061 l 651 1061 l 758 1250 "},"Ć":{"ha":1026,"x_min":0,"x_max":0,"o":"m 556 65 b 886 251 699 65 818 140 l 956 217 b 556 -10 875 79 732 -10 b 83 486 279 -10 83 210 b 556 981 83 761 279 981 b 956 754 732 981 875 892 l 886 719 b 556 906 818 831 699 906 b 164 486 326 906 164 715 b 556 65 164 256 326 65 m 494 483 b 560 549 494 519 524 549 b 624 483 594 549 624 519 b 560 419 624 449 594 419 b 494 483 524 419 494 449 m 699 1250 l 561 1061 l 504 1061 l 611 1250 "},"Č":{"ha":1026,"x_min":0,"x_max":0,"o":"m 556 65 b 886 251 699 65 818 140 l 956 217 b 556 -10 875 79 732 -10 b 83 486 279 -10 83 210 b 556 981 83 761 279 981 b 956 754 732 981 875 892 l 886 719 b 556 906 818 831 699 906 b 164 486 326 906 164 715 b 556 65 164 256 326 65 m 494 483 b 560 549 494 519 524 549 b 624 483 594 549 624 519 b 560 419 624 449 594 419 b 494 483 524 419 494 449 m 735 1250 l 582 1061 l 511 1061 l 358 1250 l 449 1250 l 546 1117 l 644 1250 "},"Ĉ":{"ha":1026,"x_min":0,"x_max":0,"o":"m 556 65 b 886 251 699 65 818 140 l 956 217 b 556 -10 875 79 732 -10 b 83 486 279 -10 83 210 b 556 981 83 761 279 981 b 956 754 732 981 875 892 l 886 719 b 556 906 818 831 699 906 b 164 486 326 906 164 715 b 556 65 164 256 326 65 m 494 483 b 560 549 494 519 524 549 b 624 483 594 549 624 519 b 560 419 624 449 594 419 b 494 483 524 419 494 449 m 358 1061 l 511 1250 l 582 1250 l 735 1061 l 644 1061 l 547 1194 l 449 1061 "},"Ċ":{"ha":1026,"x_min":0,"x_max":0,"o":"m 556 65 b 886 251 699 65 818 140 l 956 217 b 556 -10 875 79 732 -10 b 83 486 279 -10 83 210 b 556 981 83 761 279 981 b 956 754 732 981 875 892 l 886 719 b 556 906 818 831 699 906 b 164 486 326 906 164 715 b 556 65 164 256 326 65 m 494 483 b 560 549 494 519 524 549 b 624 483 594 549 624 519 b 560 419 624 449 594 419 b 494 483 524 419 494 449 m 560 1201 b 611 1150 589 1201 611 1178 b 560 1099 611 1122 589 1099 b 510 1150 532 1099 510 1122 b 560 1201 510 1178 532 1201 "},"Ď":{"ha":983,"x_min":0,"x_max":0,"o":"m 382 972 b 900 486 707 972 900 778 b 382 0 900 194 711 0 l 111 0 l 111 469 l 183 469 l 183 72 b 400 72 218 72 283 72 b 819 486 663 72 819 239 b 400 900 819 733 656 900 b 111 900 172 900 111 900 l 111 972 b 382 972 111 972 111 972 m 632 1250 l 479 1061 l 408 1061 l 256 1250 l 346 1250 l 443 1117 l 542 1250 "},"É":{"ha":840,"x_min":0,"x_max":0,"o":"m 706 450 l 111 450 l 111 522 l 706 522 m 757 72 l 757 0 l 111 0 l 111 72 m 749 900 l 111 900 l 111 972 l 749 972 m 589 1250 l 451 1061 l 394 1061 l 501 1250 "},"Ĕ":{"ha":840,"x_min":0,"x_max":0,"o":"m 706 450 l 111 450 l 111 522 l 706 522 m 757 72 l 757 0 l 111 0 l 111 72 m 749 900 l 111 900 l 111 972 l 749 972 m 600 1236 b 438 1064 600 1143 535 1064 b 274 1236 346 1064 278 1132 l 339 1236 b 438 1129 339 1175 381 1129 b 535 1236 492 1129 535 1175 "},"Ě":{"ha":840,"x_min":0,"x_max":0,"o":"m 706 450 l 111 450 l 111 522 l 706 522 m 757 72 l 757 0 l 111 0 l 111 72 m 749 900 l 111 900 l 111 972 l 749 972 m 625 1250 l 472 1061 l 401 1061 l 249 1250 l 339 1250 l 436 1117 l 535 1250 "},"Ê":{"ha":840,"x_min":0,"x_max":0,"o":"m 706 450 l 111 450 l 111 522 l 706 522 m 757 72 l 757 0 l 111 0 l 111 72 m 749 900 l 111 900 l 111 972 l 749 972 m 249 1061 l 401 1250 l 472 1250 l 625 1061 l 535 1061 l 438 1194 l 339 1061 "},"Ë":{"ha":840,"x_min":0,"x_max":0,"o":"m 706 450 l 111 450 l 111 522 l 706 522 m 757 72 l 757 0 l 111 0 l 111 72 m 749 900 l 111 900 l 111 972 l 749 972 m 331 1201 b 382 1150 360 1201 382 1178 b 331 1099 382 1122 360 1099 b 279 1150 303 1099 279 1122 b 331 1201 279 1178 303 1201 m 542 1201 b 593 1150 569 1201 593 1178 b 542 1099 593 1122 569 1099 b 490 1150 514 1099 490 1122 b 542 1201 490 1178 514 1201 "},"Ė":{"ha":840,"x_min":0,"x_max":0,"o":"m 706 450 l 111 450 l 111 522 l 706 522 m 757 72 l 757 0 l 111 0 l 111 72 m 749 900 l 111 900 l 111 972 l 749 972 m 436 1201 b 488 1150 465 1201 488 1178 b 436 1099 488 1122 465 1099 b 386 1150 408 1099 386 1122 b 436 1201 386 1178 408 1201 "},"È":{"ha":840,"x_min":0,"x_max":0,"o":"m 706 450 l 111 450 l 111 522 l 706 522 m 757 72 l 757 0 l 111 0 l 111 72 m 749 900 l 111 900 l 111 972 l 749 972 m 479 1061 l 422 1061 l 285 1250 l 372 1250 "},"Ē":{"ha":840,"x_min":0,"x_max":0,"o":"m 706 450 l 111 450 l 111 522 l 706 522 m 757 72 l 757 0 l 111 0 l 111 72 m 749 900 l 111 900 l 111 972 l 749 972 m 611 1218 l 611 1146 l 263 1146 l 263 1218 "},"Ğ":{"ha":1039,"x_min":0,"x_max":0,"o":"m 956 525 l 956 125 b 556 -10 878 53 744 -21 b 83 486 272 10 83 211 b 556 982 83 763 272 964 b 928 872 724 993 849 935 l 888 814 b 556 906 832 858 700 924 b 163 486 321 878 163 717 b 556 67 163 257 321 94 b 883 154 696 50 826 108 l 883 525 m 718 1236 b 556 1064 718 1143 653 1064 b 392 1236 464 1064 396 1132 l 457 1236 b 556 1129 457 1175 499 1129 b 653 1236 610 1129 653 1175 "},"Ĝ":{"ha":1039,"x_min":0,"x_max":0,"o":"m 956 525 l 956 125 b 556 -10 878 53 744 -21 b 83 486 272 10 83 211 b 556 982 83 763 272 964 b 928 872 724 993 849 935 l 888 814 b 556 906 832 858 700 924 b 163 486 321 878 163 717 b 556 67 163 257 321 94 b 883 154 696 50 826 108 l 883 525 m 367 1061 l 519 1250 l 590 1250 l 743 1061 l 653 1061 l 556 1194 l 457 1061 "},"Ģ":{"ha":1039,"x_min":0,"x_max":0,"o":"m 956 525 l 956 125 b 556 -10 878 53 744 -21 b 83 486 272 10 83 211 b 556 982 83 763 272 964 b 928 872 724 993 849 935 l 888 814 b 556 906 832 858 700 924 b 163 486 321 878 163 717 b 556 67 163 257 321 94 b 883 154 696 50 826 108 l 883 525 m 576 -107 l 500 -289 l 450 -289 l 496 -107 "},"Ġ":{"ha":1039,"x_min":0,"x_max":0,"o":"m 956 525 l 956 125 b 556 -10 878 53 744 -21 b 83 486 272 10 83 211 b 556 982 83 763 272 964 b 928 872 724 993 849 935 l 888 814 b 556 906 832 858 700 924 b 163 486 321 878 163 717 b 556 67 163 257 321 94 b 883 154 696 50 826 108 l 883 525 m 554 1201 b 606 1150 583 1201 606 1178 b 554 1099 606 1122 583 1099 b 504 1150 526 1099 504 1122 b 554 1201 504 1178 526 1201 "},"Ĥ":{"ha":960,"x_min":0,"x_max":0,"o":"m 111 261 l 183 261 l 183 0 l 111 0 m 849 972 l 849 711 l 776 711 l 776 972 m 849 522 l 849 0 l 776 0 l 776 450 l 111 450 l 111 972 l 183 972 l 183 522 m 292 1061 l 444 1250 l 515 1250 l 668 1061 l 578 1061 l 481 1194 l 382 1061 "},"Í":{"ha":294,"x_min":0,"x_max":0,"o":"m 183 972 l 183 824 l 111 824 l 111 972 m 111 696 l 183 696 l 183 0 l 111 0 m 311 1250 l 174 1061 l 117 1061 l 224 1250 "},"Ĭ":{"ha":294,"x_min":0,"x_max":0,"o":"m 185 972 l 185 824 l 113 824 l 113 972 m 113 696 l 185 696 l 185 0 l 113 0 m 310 1236 b 147 1064 310 1143 244 1064 b -17 1236 56 1064 -12 1132 l 49 1236 b 147 1129 49 1175 90 1129 b 244 1236 201 1129 244 1175 "},"Î":{"ha":294,"x_min":0,"x_max":0,"o":"m 185 972 l 185 824 l 113 824 l 113 972 m 113 696 l 185 696 l 185 0 l 113 0 m -42 1061 l 111 1250 l 182 1250 l 335 1061 l 244 1061 l 147 1194 l 49 1061 "},"Ï":{"ha":294,"x_min":0,"x_max":0,"o":"m 186 972 l 186 824 l 114 824 l 114 972 m 114 696 l 186 696 l 186 0 l 114 0 m 42 1201 b 93 1150 71 1201 93 1178 b 42 1099 93 1122 71 1099 b -10 1150 14 1099 -10 1122 b 42 1201 -10 1178 14 1201 m 253 1201 b 304 1150 281 1201 304 1178 b 253 1099 304 1122 281 1099 b 201 1150 225 1099 201 1122 b 253 1201 201 1178 225 1201 "},"İ":{"ha":294,"x_min":0,"x_max":0,"o":"m 185 972 l 185 824 l 113 824 l 113 972 m 113 696 l 185 696 l 185 0 l 113 0 m 146 1201 b 197 1150 175 1201 197 1178 b 146 1099 197 1122 175 1099 b 96 1150 118 1099 96 1122 b 146 1201 96 1178 118 1201 "},"Ì":{"ha":294,"x_min":0,"x_max":0,"o":"m 183 972 l 183 824 l 111 824 l 111 972 m 111 696 l 183 696 l 183 0 l 111 0 m 174 1061 l 117 1061 l -21 1250 l 67 1250 "},"Ī":{"ha":294,"x_min":0,"x_max":0,"o":"m 185 972 l 185 824 l 113 824 l 113 972 m 113 696 l 185 696 l 185 0 l 113 0 m 321 1218 l 321 1146 l -28 1146 l -28 1218 "},"Ĩ":{"ha":294,"x_min":0,"x_max":0,"o":"m 185 972 l 185 824 l 113 824 l 113 972 m 113 696 l 185 696 l 185 0 l 113 0 m 372 1171 b 250 1051 356 1108 318 1046 b 65 1140 163 1058 117 1140 b -18 1074 28 1140 6 1114 l -78 1107 b 67 1208 -54 1154 -14 1214 b 244 1122 153 1203 194 1128 b 308 1189 278 1118 294 1146 "},"Ĵ":{"ha":592,"x_min":0,"x_max":0,"o":"m 481 696 b 481 285 481 696 481 425 b 250 -10 481 76 383 -10 b 39 74 144 -10 68 38 l 88 124 b 244 63 115 93 172 63 b 408 278 339 63 408 128 b 408 696 408 371 408 696 m 481 972 b 481 824 481 972 481 911 l 408 824 b 408 972 408 911 408 972 l 481 972 m 253 1061 l 406 1250 l 476 1250 l 629 1061 l 539 1061 l 442 1194 l 343 1061 "},"Ķ":{"ha":846,"x_min":0,"x_max":0,"o":"m 378 451 l 183 451 l 183 0 l 111 0 l 111 972 l 183 972 l 183 524 l 375 524 l 706 972 l 796 972 l 440 489 l 832 0 l 742 0 m 464 -107 l 388 -289 l 338 -289 l 383 -107 "},"Ĺ":{"ha":724,"x_min":0,"x_max":0,"o":"m 183 824 l 111 824 l 111 972 l 183 972 m 183 186 l 111 115 l 111 696 l 183 696 m 696 0 l 194 0 l 267 72 l 696 72 m 313 1250 l 175 1061 l 118 1061 l 225 1250 "},"Ľ":{"ha":724,"x_min":0,"x_max":0,"o":"m 183 824 l 111 824 l 111 972 l 183 972 m 183 186 l 111 115 l 111 696 l 183 696 m 696 0 l 194 0 l 267 72 l 696 72 m 381 972 l 468 972 l 371 739 l 319 739 "},"Ļ":{"ha":724,"x_min":0,"x_max":0,"o":"m 183 824 l 111 824 l 111 972 l 183 972 m 183 186 l 111 115 l 111 696 l 183 696 m 696 0 l 194 0 l 267 72 l 696 72 m 446 -107 l 369 -289 l 319 -289 l 365 -107 "},"Ŀ":{"ha":724,"x_min":0,"x_max":0,"o":"m 435 535 b 486 483 464 535 486 511 b 435 432 486 456 464 432 b 385 483 407 432 385 456 b 435 535 385 511 407 535 m 183 824 l 111 824 l 111 972 l 183 972 m 183 186 l 111 115 l 111 696 l 183 696 m 696 0 l 194 0 l 267 72 l 696 72 "},"Ń":{"ha":963,"x_min":0,"x_max":0,"o":"m 779 972 l 851 972 l 851 -10 l 840 -10 l 183 796 l 183 0 l 111 0 l 111 981 l 124 981 l 779 182 m 660 1250 l 522 1061 l 465 1061 l 572 1250 "},"Ň":{"ha":963,"x_min":0,"x_max":0,"o":"m 779 972 l 851 972 l 851 -10 l 840 -10 l 183 796 l 183 0 l 111 0 l 111 981 l 124 981 l 779 182 m 696 1250 l 543 1061 l 472 1061 l 319 1250 l 410 1250 l 507 1117 l 606 1250 "},"Ņ":{"ha":963,"x_min":0,"x_max":0,"o":"m 779 972 l 851 972 l 851 -10 l 840 -10 l 183 796 l 183 0 l 111 0 l 111 981 l 124 981 l 779 182 m 515 -107 l 439 -289 l 389 -289 l 435 -107 "},"Ñ":{"ha":963,"x_min":0,"x_max":0,"o":"m 779 972 l 851 972 l 851 -10 l 840 -10 l 183 796 l 183 0 l 111 0 l 111 981 l 124 981 l 779 182 m 719 1171 b 597 1051 703 1108 665 1046 b 413 1140 510 1058 464 1140 b 329 1074 375 1140 353 1114 l 269 1107 b 414 1208 293 1154 333 1214 b 592 1122 500 1203 542 1128 b 656 1189 625 1118 642 1146 "},"Ó":{"ha":1111,"x_min":0,"x_max":0,"o":"m 556 981 b 1028 486 832 981 1028 761 b 556 -10 1028 210 832 -10 b 83 486 279 -10 83 210 b 556 981 83 761 279 981 m 556 65 b 947 486 785 65 947 256 b 556 906 947 715 785 906 b 164 486 326 906 164 715 b 556 65 164 256 326 65 m 556 550 b 621 486 592 550 621 521 b 556 421 621 450 592 421 b 492 486 521 421 492 450 b 556 550 492 521 521 550 m 731 1250 l 593 1061 l 536 1061 l 643 1250 "},"Ŏ":{"ha":1111,"x_min":0,"x_max":0,"o":"m 556 981 b 1028 486 832 981 1028 761 b 556 -10 1028 210 832 -10 b 83 486 279 -10 83 210 b 556 981 83 761 279 981 m 556 65 b 947 486 785 65 947 256 b 556 906 947 715 785 906 b 164 486 326 906 164 715 b 556 65 164 256 326 65 m 556 550 b 621 486 592 550 621 521 b 556 421 621 450 592 421 b 492 486 521 421 492 450 b 556 550 492 521 521 550 m 719 1236 b 557 1064 719 1143 654 1064 b 393 1236 465 1064 397 1132 l 458 1236 b 557 1129 458 1175 500 1129 b 654 1236 611 1129 654 1175 "},"Ô":{"ha":1111,"x_min":0,"x_max":0,"o":"m 556 981 b 1028 486 832 981 1028 761 b 556 -10 1028 210 832 -10 b 83 486 279 -10 83 210 b 556 981 83 761 279 981 m 556 65 b 947 486 785 65 947 256 b 556 906 947 715 785 906 b 164 486 326 906 164 715 b 556 65 164 256 326 65 m 556 550 b 621 486 592 550 621 521 b 556 421 621 450 592 421 b 492 486 521 421 492 450 b 556 550 492 521 521 550 m 368 1061 l 521 1250 l 592 1250 l 744 1061 l 654 1061 l 557 1194 l 458 1061 "},"Ö":{"ha":1111,"x_min":0,"x_max":0,"o":"m 556 981 b 1028 486 832 981 1028 761 b 556 -10 1028 210 832 -10 b 83 486 279 -10 83 210 b 556 981 83 761 279 981 m 556 65 b 947 486 785 65 947 256 b 556 906 947 715 785 906 b 164 486 326 906 164 715 b 556 65 164 256 326 65 m 556 550 b 621 486 592 550 621 521 b 556 421 621 450 592 421 b 492 486 521 421 492 450 b 556 550 492 521 521 550 m 450 1201 b 501 1150 479 1201 501 1178 b 450 1099 501 1122 479 1099 b 399 1150 422 1099 399 1122 b 450 1201 399 1178 422 1201 m 661 1201 b 713 1150 689 1201 713 1178 b 661 1099 713 1122 689 1099 b 610 1150 633 1099 610 1122 b 661 1201 610 1178 633 1201 "},"Ò":{"ha":1111,"x_min":0,"x_max":0,"o":"m 556 981 b 1028 486 832 981 1028 761 b 556 -10 1028 210 832 -10 b 83 486 279 -10 83 210 b 556 981 83 761 279 981 m 556 65 b 947 486 785 65 947 256 b 556 906 947 715 785 906 b 164 486 326 906 164 715 b 556 65 164 256 326 65 m 556 550 b 621 486 592 550 621 521 b 556 421 621 450 592 421 b 492 486 521 421 492 450 b 556 550 492 521 521 550 m 593 1061 l 536 1061 l 399 1250 l 486 1250 "},"Ő":{"ha":1111,"x_min":0,"x_max":0,"o":"m 556 981 b 1028 486 832 981 1028 761 b 556 -10 1028 210 832 -10 b 83 486 279 -10 83 210 b 556 981 83 761 279 981 m 556 65 b 947 486 785 65 947 256 b 556 906 947 715 785 906 b 164 486 326 906 164 715 b 556 65 164 256 326 65 m 556 550 b 621 486 592 550 621 521 b 556 421 621 450 592 421 b 492 486 521 421 492 450 b 556 550 492 521 521 550 m 626 1250 l 489 1061 l 432 1061 l 539 1250 m 819 1250 l 682 1061 l 625 1061 l 732 1250 "},"Ō":{"ha":1111,"x_min":0,"x_max":0,"o":"m 556 981 b 1028 486 832 981 1028 761 b 556 -10 1028 210 832 -10 b 83 486 279 -10 83 210 b 556 981 83 761 279 981 m 556 65 b 947 486 785 65 947 256 b 556 906 947 715 785 906 b 164 486 326 906 164 715 b 556 65 164 256 326 65 m 556 550 b 621 486 592 550 621 521 b 556 421 621 450 592 421 b 492 486 521 421 492 450 b 556 550 492 521 521 550 m 732 1218 l 732 1146 l 383 1146 l 383 1218 "},"Ǿ":{"ha":1111,"x_min":0,"x_max":0,"o":"m 907 822 b 1026 486 983 735 1026 617 b 556 -10 1026 210 831 -10 b 254 99 438 -10 333 31 l 143 -24 l 89 25 l 203 150 b 83 486 128 238 83 356 b 556 981 83 761 279 981 b 856 874 674 981 776 940 l 968 997 l 1021 949 l 907 822 m 163 486 b 256 210 163 381 197 283 l 803 815 b 556 906 738 871 653 906 b 163 486 325 906 163 715 m 556 65 b 947 486 785 65 947 256 b 854 763 947 592 913 689 l 307 157 b 556 65 372 100 458 65 m 726 1250 l 589 1061 l 532 1061 l 639 1250 "},"Õ":{"ha":1111,"x_min":0,"x_max":0,"o":"m 556 981 b 1028 486 832 981 1028 761 b 556 -10 1028 210 832 -10 b 83 486 279 -10 83 210 b 556 981 83 761 279 981 m 556 65 b 947 486 785 65 947 256 b 556 906 947 715 785 906 b 164 486 326 906 164 715 b 556 65 164 256 326 65 m 556 550 b 621 486 592 550 621 521 b 556 421 621 450 592 421 b 492 486 521 421 492 450 b 556 550 492 521 521 550 m 781 1171 b 658 1051 764 1108 726 1046 b 474 1140 571 1058 525 1140 b 390 1074 436 1140 414 1114 l 331 1107 b 475 1208 354 1154 394 1214 b 653 1122 561 1203 603 1128 b 717 1189 686 1118 703 1146 "},"Ŕ":{"ha":861,"x_min":0,"x_max":0,"o":"m 722 0 l 507 381 b 456 378 490 379 474 378 l 185 378 l 185 0 l 111 0 l 111 450 l 461 450 b 701 675 607 450 701 539 b 461 900 701 813 603 900 l 111 900 l 111 972 l 456 972 b 778 675 658 972 778 847 b 581 396 778 542 707 436 l 806 0 m 572 1250 l 435 1061 l 378 1061 l 485 1250 "},"Ř":{"ha":861,"x_min":0,"x_max":0,"o":"m 722 0 l 507 381 b 456 378 490 379 474 378 l 185 378 l 185 0 l 111 0 l 111 450 l 461 450 b 701 675 607 450 701 539 b 461 900 701 813 603 900 l 111 900 l 111 972 l 456 972 b 778 675 658 972 778 847 b 581 396 778 542 707 436 l 806 0 m 622 1250 l 469 1061 l 399 1061 l 246 1250 l 336 1250 l 433 1117 l 532 1250 "},"Ŗ":{"ha":861,"x_min":0,"x_max":0,"o":"m 722 0 l 507 381 b 456 378 490 379 474 378 l 185 378 l 185 0 l 111 0 l 111 450 l 461 450 b 701 675 607 450 701 539 b 461 900 701 813 603 900 l 111 900 l 111 972 l 456 972 b 778 675 658 972 778 847 b 581 396 778 542 707 436 l 806 0 m 469 -107 l 393 -289 l 343 -289 l 389 -107 "},"Ś":{"ha":876,"x_min":0,"x_max":0,"o":"m 139 231 b 243 106 156 176 192 133 l 213 43 b 69 207 147 78 93 131 l 139 231 m 440 524 b 793 249 718 464 793 392 b 446 -11 793 90 646 -11 b 403 -10 432 -11 417 -11 l 438 61 b 446 61 440 61 443 61 b 721 249 558 61 721 104 b 424 454 721 375 608 413 b 90 715 267 492 90 539 b 408 982 90 890 239 982 b 500 974 442 982 472 978 l 454 907 b 407 910 439 908 424 910 b 163 715 240 910 163 824 b 440 524 163 603 265 561 m 613 1250 l 475 1061 l 418 1061 l 525 1250 "},"Š":{"ha":876,"x_min":0,"x_max":0,"o":"m 139 231 b 243 106 156 176 192 133 l 213 43 b 69 207 147 78 93 131 l 139 231 m 440 524 b 793 249 718 464 793 392 b 446 -11 793 90 646 -11 b 403 -10 432 -11 417 -11 l 438 61 b 446 61 440 61 443 61 b 721 249 558 61 721 104 b 424 454 721 375 608 413 b 90 715 267 492 90 539 b 408 982 90 890 239 982 b 500 974 442 982 472 978 l 454 907 b 407 910 439 908 424 910 b 163 715 240 910 163 824 b 440 524 163 603 265 561 m 635 1250 l 482 1061 l 411 1061 l 258 1250 l 349 1250 l 446 1117 l 544 1250 "},"Ŝ":{"ha":876,"x_min":0,"x_max":0,"o":"m 139 231 b 243 106 156 176 192 133 l 213 43 b 69 207 147 78 93 131 l 139 231 m 440 524 b 793 249 718 464 793 392 b 446 -11 793 90 646 -11 b 403 -10 432 -11 417 -11 l 438 61 b 446 61 440 61 443 61 b 721 249 558 61 721 104 b 424 454 721 375 608 413 b 90 715 267 492 90 539 b 408 982 90 890 239 982 b 500 974 442 982 472 978 l 454 907 b 407 910 439 908 424 910 b 163 715 240 910 163 824 b 440 524 163 603 265 561 m 244 1061 l 397 1250 l 468 1250 l 621 1061 l 531 1061 l 433 1194 l 335 1061 "},"Ș":{"ha":876,"x_min":0,"x_max":0,"o":"m 429 -107 l 353 -289 l 303 -289 l 349 -107 m 139 231 b 243 106 156 176 192 133 l 213 43 b 69 207 147 78 93 131 l 139 231 m 440 524 b 793 249 718 464 793 392 b 446 -11 793 90 646 -11 b 403 -10 432 -11 417 -11 l 438 61 b 446 61 440 61 443 61 b 721 249 558 61 721 104 b 424 454 721 375 608 413 b 90 715 267 492 90 539 b 408 982 90 890 239 982 b 500 974 442 982 472 978 l 454 907 b 407 910 439 908 424 910 b 163 715 240 910 163 824 b 440 524 163 603 265 561 "},"Ť":{"ha":732,"x_min":0,"x_max":0,"o":"m 718 972 l 718 900 l 15 900 l 15 972 m 331 711 l 403 711 l 403 0 l 331 0 m 554 1250 l 401 1061 l 331 1061 l 178 1250 l 268 1250 l 365 1117 l 464 1250 "},"Ţ":{"ha":732,"x_min":0,"x_max":0,"o":"m 718 972 l 718 900 l 15 900 l 15 972 m 331 711 l 403 711 l 403 0 l 331 0 m 396 -107 l 319 -289 l 269 -289 l 315 -107 "},"Ú":{"ha":918,"x_min":0,"x_max":0,"o":"m 463 63 b 747 363 615 63 738 154 l 817 332 b 463 -10 793 99 646 -10 b 97 404 263 -10 97 113 l 97 696 l 169 696 l 169 392 b 463 63 169 163 303 63 m 821 972 l 821 483 l 749 514 l 749 972 m 169 824 l 97 824 l 97 972 l 169 972 m 624 1250 l 486 1061 l 429 1061 l 536 1250 "},"Ŭ":{"ha":918,"x_min":0,"x_max":0,"o":"m 463 63 b 747 363 615 63 738 154 l 817 332 b 463 -10 793 99 646 -10 b 97 404 263 -10 97 113 l 97 696 l 169 696 l 169 392 b 463 63 169 163 303 63 m 821 972 l 821 483 l 749 514 l 749 972 m 169 824 l 97 824 l 97 972 l 169 972 m 622 1236 b 460 1064 622 1143 557 1064 b 296 1236 368 1064 300 1132 l 361 1236 b 460 1129 361 1175 403 1129 b 557 1236 514 1129 557 1175 "},"Û":{"ha":918,"x_min":0,"x_max":0,"o":"m 463 63 b 747 363 615 63 738 154 l 817 332 b 463 -10 793 99 646 -10 b 97 404 263 -10 97 113 l 97 696 l 169 696 l 169 392 b 463 63 169 163 303 63 m 821 972 l 821 483 l 749 514 l 749 972 m 169 824 l 97 824 l 97 972 l 169 972 m 269 1061 l 422 1250 l 493 1250 l 646 1061 l 556 1061 l 458 1194 l 360 1061 "},"Ü":{"ha":918,"x_min":0,"x_max":0,"o":"m 463 63 b 747 363 615 63 738 154 l 817 332 b 463 -10 793 99 646 -10 b 97 404 263 -10 97 113 l 97 696 l 169 696 l 169 392 b 463 63 169 163 303 63 m 821 972 l 821 483 l 749 514 l 749 972 m 169 824 l 97 824 l 97 972 l 169 972 m 351 1201 b 403 1150 381 1201 403 1178 b 351 1099 403 1122 381 1099 b 300 1150 324 1099 300 1122 b 351 1201 300 1178 324 1201 m 563 1201 b 614 1150 590 1201 614 1178 b 563 1099 614 1122 590 1099 b 511 1150 535 1099 511 1122 b 563 1201 511 1178 535 1201 "},"Ù":{"ha":918,"x_min":0,"x_max":0,"o":"m 463 63 b 747 363 615 63 738 154 l 817 332 b 463 -10 793 99 646 -10 b 97 404 263 -10 97 113 l 97 696 l 169 696 l 169 392 b 463 63 169 163 303 63 m 821 972 l 821 483 l 749 514 l 749 972 m 169 824 l 97 824 l 97 972 l 169 972 m 500 1061 l 443 1061 l 306 1250 l 393 1250 "},"Ű":{"ha":918,"x_min":0,"x_max":0,"o":"m 463 63 b 747 363 615 63 738 154 l 817 332 b 463 -10 793 99 646 -10 b 97 404 263 -10 97 113 l 97 696 l 169 696 l 169 392 b 463 63 169 163 303 63 m 821 972 l 821 483 l 749 514 l 749 972 m 169 824 l 97 824 l 97 972 l 169 972 m 514 1250 l 376 1061 l 319 1061 l 426 1250 m 707 1250 l 569 1061 l 513 1061 l 619 1250 "},"Ū":{"ha":918,"x_min":0,"x_max":0,"o":"m 463 63 b 747 363 615 63 738 154 l 817 332 b 463 -10 793 99 646 -10 b 97 404 263 -10 97 113 l 97 696 l 169 696 l 169 392 b 463 63 169 163 303 63 m 821 972 l 821 483 l 749 514 l 749 972 m 169 824 l 97 824 l 97 972 l 169 972 m 633 1218 l 633 1146 l 285 1146 l 285 1218 "},"Ů":{"ha":918,"x_min":0,"x_max":0,"o":"m 463 63 b 747 363 615 63 738 154 l 817 332 b 463 -10 793 99 646 -10 b 97 404 263 -10 97 113 l 97 696 l 169 696 l 169 392 b 463 63 169 163 303 63 m 821 972 l 821 483 l 749 514 l 749 972 m 169 824 l 97 824 l 97 972 l 169 972 m 458 1336 b 596 1199 538 1336 596 1276 b 458 1061 596 1121 538 1061 b 322 1199 381 1061 322 1121 b 458 1336 322 1276 381 1336 m 458 1119 b 538 1199 504 1119 538 1153 b 458 1276 538 1244 504 1276 b 381 1199 414 1276 381 1244 b 458 1119 381 1153 414 1119 "},"Ũ":{"ha":918,"x_min":0,"x_max":0,"o":"m 463 63 b 747 363 615 63 738 154 l 817 332 b 463 -10 793 99 646 -10 b 97 404 263 -10 97 113 l 97 696 l 169 696 l 169 392 b 463 63 169 163 303 63 m 821 972 l 821 483 l 749 514 l 749 972 m 169 824 l 97 824 l 97 972 l 169 972 m 685 1171 b 563 1051 668 1108 631 1046 b 378 1140 475 1058 429 1140 b 294 1074 340 1140 318 1114 l 235 1107 b 379 1208 258 1154 299 1214 b 557 1122 465 1203 507 1128 b 621 1189 590 1118 607 1146 "},"Ẃ":{"ha":1357,"x_min":0,"x_max":0,"o":"m 1343 972 l 956 0 l 893 0 l 678 506 l 463 0 l 401 0 l 14 972 l 90 972 l 432 121 l 639 599 l 478 972 l 556 972 l 678 690 l 800 972 l 878 972 l 718 599 l 924 121 l 1265 972 m 861 1250 l 724 1061 l 667 1061 l 774 1250 "},"Ŵ":{"ha":1357,"x_min":0,"x_max":0,"o":"m 1343 972 l 956 0 l 893 0 l 678 506 l 463 0 l 401 0 l 14 972 l 90 972 l 432 121 l 639 599 l 478 972 l 556 972 l 678 690 l 800 972 l 878 972 l 718 599 l 924 121 l 1265 972 m 492 1061 l 644 1250 l 715 1250 l 868 1061 l 778 1061 l 681 1194 l 582 1061 "},"Ẅ":{"ha":1357,"x_min":0,"x_max":0,"o":"m 1343 972 l 956 0 l 893 0 l 678 506 l 463 0 l 401 0 l 14 972 l 90 972 l 432 121 l 639 599 l 478 972 l 556 972 l 678 690 l 800 972 l 878 972 l 718 599 l 924 121 l 1265 972 m 574 1201 b 625 1150 603 1201 625 1178 b 574 1099 625 1122 603 1099 b 522 1150 546 1099 522 1122 b 574 1201 522 1178 546 1201 m 785 1201 b 836 1150 813 1201 836 1178 b 785 1099 836 1122 813 1099 b 733 1150 757 1099 733 1122 b 785 1201 733 1178 757 1201 "},"Ẁ":{"ha":1357,"x_min":0,"x_max":0,"o":"m 1343 972 l 956 0 l 893 0 l 678 506 l 463 0 l 401 0 l 14 972 l 90 972 l 432 121 l 639 599 l 478 972 l 556 972 l 678 690 l 800 972 l 878 972 l 718 599 l 924 121 l 1265 972 m 704 1061 l 647 1061 l 510 1250 l 597 1250 "},"Ý":{"ha":832,"x_min":0,"x_max":0,"o":"m 381 194 l 453 194 l 453 0 l 381 0 m 804 972 l 461 361 l 371 361 l 28 972 l 111 972 l 417 428 l 721 972 m 593 1250 l 456 1061 l 399 1061 l 506 1250 "},"Ŷ":{"ha":832,"x_min":0,"x_max":0,"o":"m 381 194 l 453 194 l 453 0 l 381 0 m 804 972 l 461 361 l 371 361 l 28 972 l 111 972 l 417 428 l 721 972 m 238 1061 l 390 1250 l 461 1250 l 614 1061 l 524 1061 l 426 1194 l 328 1061 "},"Ÿ":{"ha":832,"x_min":0,"x_max":0,"o":"m 381 194 l 453 194 l 453 0 l 381 0 m 804 972 l 461 361 l 371 361 l 28 972 l 111 972 l 417 428 l 721 972 m 318 1201 b 369 1150 347 1201 369 1178 b 318 1099 369 1122 347 1099 b 267 1150 290 1099 267 1122 b 318 1201 267 1178 290 1201 m 529 1201 b 581 1150 557 1201 581 1178 b 529 1099 581 1122 557 1099 b 478 1150 501 1099 478 1122 b 529 1201 478 1178 501 1201 "},"Ỳ":{"ha":832,"x_min":0,"x_max":0,"o":"m 381 194 l 453 194 l 453 0 l 381 0 m 804 972 l 461 361 l 371 361 l 28 972 l 111 972 l 417 428 l 721 972 m 442 1061 l 385 1061 l 247 1250 l 335 1250 "},"Ź":{"ha":825,"x_min":0,"x_max":0,"o":"m 783 72 l 783 0 l 42 0 l 42 72 l 681 900 l 771 900 l 133 72 m 394 900 l 83 900 l 83 972 l 450 972 m 578 1250 l 440 1061 l 383 1061 l 490 1250 "},"Ž":{"ha":825,"x_min":0,"x_max":0,"o":"m 783 72 l 783 0 l 42 0 l 42 72 l 681 900 l 771 900 l 133 72 m 394 900 l 83 900 l 83 972 l 450 972 m 642 1250 l 489 1061 l 418 1061 l 265 1250 l 356 1250 l 453 1117 l 551 1250 "},"Ż":{"ha":825,"x_min":0,"x_max":0,"o":"m 783 72 l 783 0 l 42 0 l 42 72 l 681 900 l 771 900 l 133 72 m 394 900 l 83 900 l 83 972 l 450 972 m 439 1201 b 490 1150 468 1201 490 1178 b 439 1099 490 1122 468 1099 b 389 1150 411 1099 389 1122 b 439 1201 389 1178 411 1201 "},"á":{"ha":697,"x_min":0,"x_max":0,"o":"m 347 681 b 600 450 488 681 600 614 l 600 0 l 528 0 l 528 106 b 278 -10 471 39 385 -10 b 56 176 140 -10 56 65 b 310 378 56 300 143 354 b 528 467 493 406 528 410 b 347 610 528 544 463 610 b 154 478 210 610 163 532 l 83 494 b 347 681 100 579 176 681 m 528 343 b 306 306 489 335 392 318 b 128 172 185 289 128 251 b 282 63 128 104 183 63 b 528 288 397 63 528 146 m 510 972 l 372 783 l 315 783 l 422 972 "},"ă":{"ha":697,"x_min":0,"x_max":0,"o":"m 347 681 b 600 450 488 681 600 614 l 600 0 l 528 0 l 528 106 b 278 -10 471 39 385 -10 b 56 176 140 -10 56 65 b 310 378 56 300 143 354 b 528 467 493 406 528 410 b 347 610 528 544 463 610 b 154 478 210 610 163 532 l 83 494 b 347 681 100 579 176 681 m 528 343 b 306 306 489 335 392 318 b 128 172 185 289 128 251 b 282 63 128 104 183 63 b 528 288 397 63 528 146 m 535 958 b 372 786 535 865 469 786 b 208 958 281 786 213 854 l 274 958 b 372 851 274 897 315 851 b 469 958 426 851 469 897 "},"â":{"ha":697,"x_min":0,"x_max":0,"o":"m 347 681 b 600 450 488 681 600 614 l 600 0 l 528 0 l 528 106 b 278 -10 471 39 385 -10 b 56 176 140 -10 56 65 b 310 378 56 300 143 354 b 528 467 493 406 528 410 b 347 610 528 544 463 610 b 154 478 210 610 163 532 l 83 494 b 347 681 100 579 176 681 m 528 343 b 306 306 489 335 392 318 b 128 172 185 289 128 251 b 282 63 128 104 183 63 b 528 288 397 63 528 146 m 183 783 l 336 972 l 407 972 l 560 783 l 469 783 l 372 917 l 274 783 "},"ä":{"ha":697,"x_min":0,"x_max":0,"o":"m 347 681 b 600 450 488 681 600 614 l 600 0 l 528 0 l 528 106 b 278 -10 471 39 385 -10 b 56 176 140 -10 56 65 b 310 378 56 300 143 354 b 528 467 493 406 528 410 b 347 610 528 544 463 610 b 154 478 210 610 163 532 l 83 494 b 347 681 100 579 176 681 m 528 343 b 306 306 489 335 392 318 b 128 172 185 289 128 251 b 282 63 128 104 183 63 b 528 288 397 63 528 146 m 265 924 b 317 872 294 924 317 900 b 265 821 317 844 294 821 b 214 872 238 821 214 844 b 265 924 214 900 238 924 m 476 924 b 528 872 504 924 528 900 b 476 821 528 844 504 821 b 425 872 449 821 425 844 b 476 924 425 900 449 924 "},"à":{"ha":697,"x_min":0,"x_max":0,"o":"m 347 681 b 600 450 488 681 600 614 l 600 0 l 528 0 l 528 106 b 278 -10 471 39 385 -10 b 56 176 140 -10 56 65 b 310 378 56 300 143 354 b 528 467 493 406 528 410 b 347 610 528 544 463 610 b 154 478 210 610 163 532 l 83 494 b 347 681 100 579 176 681 m 528 343 b 306 306 489 335 392 318 b 128 172 185 289 128 251 b 282 63 128 104 183 63 b 528 288 397 63 528 146 m 414 783 l 357 783 l 219 972 l 307 972 "},"ā":{"ha":697,"x_min":0,"x_max":0,"o":"m 347 681 b 600 450 488 681 600 614 l 600 0 l 528 0 l 528 106 b 278 -10 471 39 385 -10 b 56 176 140 -10 56 65 b 310 378 56 300 143 354 b 528 467 493 406 528 410 b 347 610 528 544 463 610 b 154 478 210 610 163 532 l 83 494 b 347 681 100 579 176 681 m 528 343 b 306 306 489 335 392 318 b 128 172 185 289 128 251 b 282 63 128 104 183 63 b 528 288 397 63 528 146 m 538 940 l 538 868 l 189 868 l 189 940 "},"å":{"ha":697,"x_min":0,"x_max":0,"o":"m 347 681 b 600 450 488 681 600 614 l 600 0 l 528 0 l 528 106 b 278 -10 471 39 385 -10 b 56 176 140 -10 56 65 b 310 378 56 300 143 354 b 528 467 493 406 528 410 b 347 610 528 544 463 610 b 154 478 210 610 163 532 l 83 494 b 347 681 100 579 176 681 m 528 343 b 306 306 489 335 392 318 b 128 172 185 289 128 251 b 282 63 128 104 183 63 b 528 288 397 63 528 146 m 367 1058 b 504 921 446 1058 504 999 b 367 783 504 843 446 783 b 231 921 289 783 231 843 b 367 1058 231 999 289 1058 m 367 842 b 446 921 413 842 446 875 b 367 999 446 967 413 999 b 289 921 322 999 289 967 b 367 842 289 875 322 842 "},"ã":{"ha":697,"x_min":0,"x_max":0,"o":"m 347 681 b 600 450 488 681 600 614 l 600 0 l 528 0 l 528 106 b 278 -10 471 39 385 -10 b 56 176 140 -10 56 65 b 310 378 56 300 143 354 b 528 467 493 406 528 410 b 347 610 528 544 463 610 b 154 478 210 610 163 532 l 83 494 b 347 681 100 579 176 681 m 528 343 b 306 306 489 335 392 318 b 128 172 185 289 128 251 b 282 63 128 104 183 63 b 528 288 397 63 528 146 m 582 893 b 460 774 565 831 528 768 b 275 863 372 781 326 863 b 192 796 238 863 215 836 l 132 829 b 276 931 156 876 196 936 b 454 844 363 925 404 850 b 518 911 488 840 504 868 "},"ǽ":{"ha":1206,"x_min":0,"x_max":0,"o":"m 608 299 b 861 60 624 164 722 60 b 1067 178 956 60 1024 106 l 1129 147 b 861 -10 1075 53 983 -10 b 569 172 731 -10 624 64 b 529 106 560 149 546 126 b 278 -10 485 51 401 -10 b 56 175 142 -10 56 64 b 310 378 56 299 143 353 b 529 467 494 406 529 410 b 347 608 529 544 463 608 b 154 478 211 608 164 531 l 83 494 b 347 681 100 579 176 681 b 589 535 461 681 556 638 b 854 679 644 622 738 679 b 1150 335 1044 679 1150 525 b 1149 299 1150 322 1150 311 m 529 343 b 306 306 489 335 392 318 b 128 171 185 288 128 250 b 282 63 128 104 183 63 b 529 288 397 63 529 146 m 1079 371 b 854 610 1068 506 993 610 b 608 371 714 610 622 506 m 779 972 l 642 783 l 585 783 l 692 972 "},"ć":{"ha":708,"x_min":0,"x_max":0,"o":"m 381 60 b 590 178 474 60 547 107 l 653 147 b 381 -10 599 53 501 -10 b 56 335 190 -10 56 144 b 381 681 56 526 190 681 b 653 524 501 681 599 618 l 590 493 b 381 611 547 564 474 611 b 129 335 228 611 129 488 b 381 60 129 183 228 60 m 535 972 l 397 783 l 340 783 l 447 972 "},"č":{"ha":708,"x_min":0,"x_max":0,"o":"m 381 60 b 590 178 474 60 547 107 l 653 147 b 381 -10 599 53 501 -10 b 56 335 190 -10 56 144 b 381 681 56 526 190 681 b 653 524 501 681 599 618 l 590 493 b 381 611 547 564 474 611 b 129 335 228 611 129 488 b 381 60 129 183 228 60 m 571 972 l 418 783 l 347 783 l 194 972 l 285 972 l 382 839 l 481 972 "},"ĉ":{"ha":708,"x_min":0,"x_max":0,"o":"m 381 60 b 590 178 474 60 547 107 l 653 147 b 381 -10 599 53 501 -10 b 56 335 190 -10 56 144 b 381 681 56 526 190 681 b 653 524 501 681 599 618 l 590 493 b 381 611 547 564 474 611 b 129 335 228 611 129 488 b 381 60 129 183 228 60 m 194 783 l 347 972 l 418 972 l 571 783 l 481 783 l 383 917 l 285 783 "},"ċ":{"ha":708,"x_min":0,"x_max":0,"o":"m 381 60 b 590 178 474 60 547 107 l 653 147 b 381 -10 599 53 501 -10 b 56 335 190 -10 56 144 b 381 681 56 526 190 681 b 653 524 501 681 599 618 l 590 493 b 381 611 547 564 474 611 b 129 335 228 611 129 488 b 381 60 129 183 228 60 m 382 924 b 433 872 411 924 433 900 b 382 821 433 844 411 821 b 332 872 354 821 332 844 b 382 924 332 900 354 924 "},"ď":{"ha":893,"x_min":0,"x_max":0,"o":"m 688 972 l 688 0 l 615 0 l 615 121 b 372 -10 564 42 482 -10 b 56 335 182 -10 56 144 b 372 681 56 526 182 681 b 615 550 482 681 564 629 l 615 972 m 372 60 b 611 335 524 60 611 183 b 372 611 611 488 524 611 b 129 335 221 611 129 488 b 372 60 129 183 221 60 m 847 972 l 935 972 l 838 739 l 786 739 "},"é":{"ha":728,"x_min":0,"x_max":0,"o":"m 131 299 b 385 60 146 164 244 60 b 590 182 478 60 547 111 l 653 151 b 385 -10 599 57 506 -10 b 56 335 193 -10 56 144 b 376 681 56 526 186 681 b 672 335 567 681 672 526 b 671 299 672 324 672 311 m 601 371 b 376 611 590 507 515 611 b 131 371 236 611 144 507 m 539 972 l 401 783 l 344 783 l 451 972 "},"ĕ":{"ha":728,"x_min":0,"x_max":0,"o":"m 131 299 b 385 60 146 164 244 60 b 590 182 478 60 547 111 l 653 151 b 385 -10 599 57 506 -10 b 56 335 193 -10 56 144 b 376 681 56 526 186 681 b 672 335 567 681 672 526 b 671 299 672 324 672 311 m 601 371 b 376 611 590 507 515 611 b 131 371 236 611 144 507 m 543 958 b 381 786 543 865 478 786 b 217 958 289 786 221 854 l 282 958 b 381 851 282 897 324 851 b 478 958 435 851 478 897 "},"ě":{"ha":728,"x_min":0,"x_max":0,"o":"m 131 299 b 385 60 146 164 244 60 b 590 182 478 60 547 111 l 653 151 b 385 -10 599 57 506 -10 b 56 335 193 -10 56 144 b 376 681 56 526 186 681 b 672 335 567 681 672 526 b 671 299 672 324 672 311 m 601 371 b 376 611 590 507 515 611 b 131 371 236 611 144 507 m 568 972 l 415 783 l 344 783 l 192 972 l 282 972 l 379 839 l 478 972 "},"ê":{"ha":728,"x_min":0,"x_max":0,"o":"m 131 299 b 385 60 146 164 244 60 b 590 182 478 60 547 111 l 653 151 b 385 -10 599 57 506 -10 b 56 335 193 -10 56 144 b 376 681 56 526 186 681 b 672 335 567 681 672 526 b 671 299 672 324 672 311 m 601 371 b 376 611 590 507 515 611 b 131 371 236 611 144 507 m 192 783 l 344 972 l 415 972 l 568 783 l 478 783 l 381 917 l 282 783 "},"ë":{"ha":728,"x_min":0,"x_max":0,"o":"m 131 299 b 385 60 146 164 244 60 b 590 182 478 60 547 111 l 653 151 b 385 -10 599 57 506 -10 b 56 335 193 -10 56 144 b 376 681 56 526 186 681 b 672 335 567 681 672 526 b 671 299 672 324 672 311 m 601 371 b 376 611 590 507 515 611 b 131 371 236 611 144 507 m 274 924 b 325 872 303 924 325 900 b 274 821 325 844 303 821 b 222 872 246 821 222 844 b 274 924 222 900 246 924 m 485 924 b 536 872 513 924 536 900 b 485 821 536 844 513 821 b 433 872 457 821 433 844 b 485 924 433 900 457 924 "},"ė":{"ha":728,"x_min":0,"x_max":0,"o":"m 131 299 b 385 60 146 164 244 60 b 590 182 478 60 547 111 l 653 151 b 385 -10 599 57 506 -10 b 56 335 193 -10 56 144 b 376 681 56 526 186 681 b 672 335 567 681 672 526 b 671 299 672 324 672 311 m 601 371 b 376 611 590 507 515 611 b 131 371 236 611 144 507 m 379 924 b 431 872 408 924 431 900 b 379 821 431 844 408 821 b 329 872 351 821 329 844 b 379 924 329 900 351 924 "},"è":{"ha":728,"x_min":0,"x_max":0,"o":"m 131 299 b 385 60 146 164 244 60 b 590 182 478 60 547 111 l 653 151 b 385 -10 599 57 506 -10 b 56 335 193 -10 56 144 b 376 681 56 526 186 681 b 672 335 567 681 672 526 b 671 299 672 324 672 311 m 601 371 b 376 611 590 507 515 611 b 131 371 236 611 144 507 m 401 783 l 344 783 l 207 972 l 294 972 "},"ē":{"ha":728,"x_min":0,"x_max":0,"o":"m 131 299 b 385 60 146 164 244 60 b 590 182 478 60 547 111 l 653 151 b 385 -10 599 57 506 -10 b 56 335 193 -10 56 144 b 376 681 56 526 186 681 b 672 335 567 681 672 526 b 671 299 672 324 672 311 m 601 371 b 376 611 590 507 515 611 b 131 371 236 611 144 507 m 554 940 l 554 868 l 206 868 l 206 940 "},"ğ":{"ha":706,"x_min":0,"x_max":0,"o":"m 678 654 b 540 583 610 654 564 614 b 583 447 567 547 583 501 b 325 214 583 301 468 214 b 267 219 306 214 286 215 b 238 128 235 193 210 149 b 364 114 257 113 315 115 b 650 -60 556 111 650 61 b 326 -271 650 -204 507 -282 b 28 -161 204 -264 97 -226 l 71 -110 b 338 -199 131 -162 231 -196 b 574 -64 529 -204 574 -117 b 361 42 574 10 508 35 b 192 68 294 44 229 44 b 206 238 129 107 153 185 b 68 447 124 274 68 346 b 325 681 68 593 183 681 b 501 624 393 681 456 660 b 678 726 542 688 604 726 l 678 654 m 325 286 b 511 447 428 286 511 340 b 325 608 511 554 428 608 b 140 447 224 608 140 554 b 325 286 140 340 224 286 m 503 958 b 340 786 503 865 438 786 b 176 958 249 786 181 854 l 242 958 b 340 851 242 897 283 851 b 438 958 394 851 438 897 "},"ĝ":{"ha":706,"x_min":0,"x_max":0,"o":"m 678 654 b 540 583 610 654 564 614 b 583 447 567 547 583 501 b 325 214 583 301 468 214 b 267 219 306 214 286 215 b 238 128 235 193 210 149 b 364 114 257 113 315 115 b 650 -60 556 111 650 61 b 326 -271 650 -204 507 -282 b 28 -161 204 -264 97 -226 l 71 -110 b 338 -199 131 -162 231 -196 b 574 -64 529 -204 574 -117 b 361 42 574 10 508 35 b 192 68 294 44 229 44 b 206 238 129 107 153 185 b 68 447 124 274 68 346 b 325 681 68 593 183 681 b 501 624 393 681 456 660 b 678 726 542 688 604 726 l 678 654 m 325 286 b 511 447 428 286 511 340 b 325 608 511 554 428 608 b 140 447 224 608 140 554 b 325 286 140 340 224 286 m 150 783 l 303 972 l 374 972 l 526 783 l 436 783 l 339 917 l 240 783 "},"ģ":{"ha":706,"x_min":0,"x_max":0,"o":"m 678 654 b 540 583 610 654 564 614 b 583 447 567 547 583 501 b 325 214 583 301 468 214 b 267 219 306 214 286 215 b 238 128 235 193 210 149 b 364 114 257 113 315 115 b 650 -60 556 111 650 61 b 326 -271 650 -204 507 -282 b 28 -161 204 -264 97 -226 l 71 -110 b 338 -199 131 -162 231 -196 b 574 -64 529 -204 574 -117 b 361 42 574 10 508 35 b 192 68 294 44 229 44 b 206 238 129 107 153 185 b 68 447 124 274 68 346 b 325 681 68 593 183 681 b 501 624 393 681 456 660 b 678 726 542 688 604 726 l 678 654 m 325 286 b 511 447 428 286 511 340 b 325 608 511 554 428 608 b 140 447 224 608 140 554 b 325 286 140 340 224 286 m 404 1040 l 454 1040 l 394 807 l 307 807 "},"ġ":{"ha":706,"x_min":0,"x_max":0,"o":"m 678 654 b 540 583 610 654 564 614 b 583 447 567 547 583 501 b 325 214 583 301 468 214 b 267 219 306 214 286 215 b 238 128 235 193 210 149 b 364 114 257 113 315 115 b 650 -60 556 111 650 61 b 326 -271 650 -204 507 -282 b 28 -161 204 -264 97 -226 l 71 -110 b 338 -199 131 -162 231 -196 b 574 -64 529 -204 574 -117 b 361 42 574 10 508 35 b 192 68 294 44 229 44 b 206 238 129 107 153 185 b 68 447 124 274 68 346 b 325 681 68 593 183 681 b 501 624 393 681 456 660 b 678 726 542 688 604 726 l 678 654 m 325 286 b 511 447 428 286 511 340 b 325 608 511 554 428 608 b 140 447 224 608 140 554 b 325 286 140 340 224 286 m 351 924 b 403 872 381 924 403 900 b 351 821 403 844 381 821 b 301 872 324 821 301 844 b 351 924 301 900 324 924 "},"ĥ":{"ha":731,"x_min":0,"x_max":0,"o":"m 371 681 b 633 360 556 681 633 551 b 633 0 633 193 633 0 l 561 0 b 561 360 561 0 561 207 b 371 608 561 538 485 608 b 169 360 261 608 169 538 l 169 0 l 97 0 l 97 972 l 169 972 l 169 571 b 371 681 215 640 282 681 m 190 1063 l 343 1251 l 414 1251 l 567 1063 l 476 1063 l 379 1196 l 281 1063 "},"í":{"ha":283,"x_min":0,"x_max":0,"o":"m 97 669 l 169 669 l 169 0 l 97 0 m 313 972 l 175 783 l 118 783 l 225 972 "},"ĭ":{"ha":283,"x_min":0,"x_max":0,"o":"m 100 669 l 172 669 l 172 0 l 100 0 m 300 958 b 138 786 300 865 235 786 b -26 958 46 786 -22 854 l 39 958 b 138 851 39 897 81 851 b 235 958 192 851 235 897 "},"î":{"ha":283,"x_min":0,"x_max":0,"o":"m 97 669 l 169 669 l 169 0 l 97 0 m -53 783 l 100 972 l 171 972 l 324 783 l 233 783 l 136 917 l 38 783 "},"ï":{"ha":283,"x_min":0,"x_max":0,"o":"m 99 669 l 171 669 l 171 0 l 99 0 m 29 924 b 81 872 58 924 81 900 b 29 821 81 844 58 821 b -22 872 1 821 -22 844 b 29 924 -22 900 1 924 m 240 924 b 292 872 268 924 292 900 b 240 821 292 844 268 821 b 189 872 213 821 189 844 b 240 924 189 900 213 924 "},"ì":{"ha":283,"x_min":0,"x_max":0,"o":"m 100 669 l 172 669 l 172 0 l 100 0 m 164 783 l 107 783 l -31 972 l 57 972 "},"ī":{"ha":283,"x_min":0,"x_max":0,"o":"m 99 669 l 171 669 l 171 0 l 99 0 m 310 940 l 310 868 l -39 868 l -39 940 "},"ĩ":{"ha":297,"x_min":0,"x_max":0,"o":"m 119 669 l 192 669 l 192 0 l 119 0 m 381 893 b 258 774 364 831 326 768 b 74 863 171 781 125 863 b -10 796 36 863 14 836 l -69 829 b 75 931 -46 876 -6 936 b 253 844 161 925 203 850 b 317 911 286 840 303 868 "},"ı":{"ha":283,"x_min":0,"x_max":0,"o":"m 101 669 l 174 669 l 174 0 l 101 0 "},"ĵ":{"ha":325,"x_min":0,"x_max":0,"o":"m 213 669 l 213 -107 b 114 -303 213 -231 169 -282 b -58 -271 61 -322 -4 -311 l -19 -221 b 83 -239 11 -242 54 -251 b 140 -110 107 -229 140 -206 l 140 669 m -12 783 l 140 972 l 211 972 l 364 783 l 274 783 l 176 917 l 78 783 "},"ķ":{"ha":667,"x_min":0,"x_max":0,"o":"m 319 299 l 169 299 l 169 0 l 97 0 l 97 972 l 169 972 l 169 371 l 299 371 l 518 669 l 608 669 l 372 349 l 653 0 l 558 0 m 381 -107 l 304 -289 l 254 -289 l 300 -107 "},"ĺ":{"ha":386,"x_min":0,"x_max":0,"o":"m 344 29 b 176 1 292 -10 228 -19 b 97 192 126 22 97 58 l 97 1042 l 171 1042 l 171 193 b 214 65 171 97 185 75 b 318 83 244 54 288 63 m 301 1319 l 164 1131 l 107 1131 l 214 1319 "},"ľ":{"ha":386,"x_min":0,"x_max":0,"o":"m 344 29 b 176 1 292 -10 228 -19 b 97 192 126 22 97 58 l 97 1042 l 171 1042 l 171 193 b 214 65 171 97 185 75 b 318 83 244 54 288 63 m 339 972 l 426 972 l 329 739 l 278 739 "},"ļ":{"ha":386,"x_min":0,"x_max":0,"o":"m 344 29 b 176 1 292 -10 228 -19 b 97 192 126 22 97 58 l 97 1042 l 171 1042 l 171 193 b 214 65 171 97 185 75 b 318 83 244 54 288 63 m 244 -107 l 168 -289 l 118 -289 l 164 -107 "},"ŀ":{"ha":431,"x_min":0,"x_max":0,"o":"m 344 29 b 176 1 292 -10 228 -19 b 97 192 126 22 97 58 l 97 1042 l 171 1042 l 171 193 b 214 65 171 97 185 75 b 318 83 244 54 288 63 m 351 375 b 403 324 381 375 403 351 b 351 272 403 296 381 272 b 301 324 324 272 301 296 b 351 375 301 351 324 375 "},"ń":{"ha":731,"x_min":0,"x_max":0,"o":"m 371 681 b 633 360 557 681 633 551 b 633 0 633 193 633 0 l 561 0 b 561 360 561 0 561 207 b 371 608 561 538 485 608 b 169 360 263 608 169 538 l 169 0 l 97 0 l 97 669 l 169 669 l 169 571 b 371 681 215 640 283 681 m 543 972 l 406 783 l 349 783 l 456 972 "},"ŉ":{"ha":785,"x_min":0,"x_max":0,"o":"m 425 681 b 688 360 611 681 688 551 b 688 0 688 193 688 0 l 615 0 b 615 360 615 0 615 207 b 425 608 615 538 539 608 b 224 360 317 608 224 538 l 224 0 l 151 0 l 151 669 l 224 669 l 224 571 b 425 681 269 640 338 681 m 126 806 l 50 624 l 0 624 l 46 806 "},"ň":{"ha":731,"x_min":0,"x_max":0,"o":"m 371 681 b 633 360 557 681 633 551 b 633 0 633 193 633 0 l 561 0 b 561 360 561 0 561 207 b 371 608 561 538 485 608 b 169 360 263 608 169 538 l 169 0 l 97 0 l 97 669 l 169 669 l 169 571 b 371 681 215 640 283 681 m 565 972 l 413 783 l 342 783 l 189 972 l 279 972 l 376 839 l 475 972 "},"ņ":{"ha":731,"x_min":0,"x_max":0,"o":"m 371 681 b 633 360 557 681 633 551 b 633 0 633 193 633 0 l 561 0 b 561 360 561 0 561 207 b 371 608 561 538 485 608 b 169 360 263 608 169 538 l 169 0 l 97 0 l 97 669 l 169 669 l 169 571 b 371 681 215 640 283 681 m 399 -107 l 322 -289 l 272 -289 l 318 -107 "},"ñ":{"ha":731,"x_min":0,"x_max":0,"o":"m 371 681 b 633 360 557 681 633 551 b 633 0 633 193 633 0 l 561 0 b 561 360 561 0 561 207 b 371 608 561 538 485 608 b 169 360 263 608 169 538 l 169 0 l 97 0 l 97 669 l 169 669 l 169 571 b 371 681 215 640 283 681 m 589 893 b 467 774 572 831 535 768 b 282 863 379 781 333 863 b 199 796 244 863 222 836 l 139 829 b 283 931 163 876 203 936 b 461 844 369 925 411 850 b 525 911 494 840 511 868 "},"ó":{"ha":756,"x_min":0,"x_max":0,"o":"m 379 681 b 700 335 571 681 700 525 b 379 -10 700 144 571 -10 b 56 335 189 -10 56 144 b 379 681 56 525 189 681 m 379 60 b 626 335 532 60 626 183 b 379 610 626 488 532 610 b 129 335 228 610 129 488 b 379 60 129 183 228 60 m 542 972 l 404 783 l 347 783 l 454 972 "},"ŏ":{"ha":756,"x_min":0,"x_max":0,"o":"m 379 681 b 700 335 571 681 700 525 b 379 -10 700 144 571 -10 b 56 335 189 -10 56 144 b 379 681 56 525 189 681 m 379 60 b 626 335 532 60 626 183 b 379 610 626 488 532 610 b 129 335 228 610 129 488 b 379 60 129 183 228 60 m 542 958 b 379 786 542 865 476 786 b 215 958 288 786 219 854 l 281 958 b 379 851 281 897 322 851 b 476 958 433 851 476 897 "},"ô":{"ha":756,"x_min":0,"x_max":0,"o":"m 379 681 b 700 335 571 681 700 525 b 379 -10 700 144 571 -10 b 56 335 189 -10 56 144 b 379 681 56 525 189 681 m 379 60 b 626 335 532 60 626 183 b 379 610 626 488 532 610 b 129 335 228 610 129 488 b 379 60 129 183 228 60 m 190 783 l 343 972 l 414 972 l 567 783 l 476 783 l 379 917 l 281 783 "},"ö":{"ha":756,"x_min":0,"x_max":0,"o":"m 379 681 b 700 335 571 681 700 525 b 379 -10 700 144 571 -10 b 56 335 189 -10 56 144 b 379 681 56 525 189 681 m 379 60 b 626 335 532 60 626 183 b 379 610 626 488 532 610 b 129 335 228 610 129 488 b 379 60 129 183 228 60 m 272 924 b 324 872 301 924 324 900 b 272 821 324 844 301 821 b 221 872 244 821 221 844 b 272 924 221 900 244 924 m 483 924 b 535 872 511 924 535 900 b 483 821 535 844 511 821 b 432 872 456 821 432 844 b 483 924 432 900 456 924 "},"ò":{"ha":756,"x_min":0,"x_max":0,"o":"m 379 681 b 700 335 571 681 700 525 b 379 -10 700 144 571 -10 b 56 335 189 -10 56 144 b 379 681 56 525 189 681 m 379 60 b 626 335 532 60 626 183 b 379 610 626 488 532 610 b 129 335 228 610 129 488 b 379 60 129 183 228 60 m 418 783 l 361 783 l 224 972 l 311 972 "},"ő":{"ha":756,"x_min":0,"x_max":0,"o":"m 379 681 b 700 335 571 681 700 525 b 379 -10 700 144 571 -10 b 56 335 189 -10 56 144 b 379 681 56 525 189 681 m 379 60 b 626 335 532 60 626 183 b 379 610 626 488 532 610 b 129 335 228 610 129 488 b 379 60 129 183 228 60 m 446 972 l 308 783 l 251 783 l 358 972 m 639 972 l 501 783 l 444 783 l 551 972 "},"ō":{"ha":756,"x_min":0,"x_max":0,"o":"m 379 681 b 700 335 571 681 700 525 b 379 -10 700 144 571 -10 b 56 335 189 -10 56 144 b 379 681 56 525 189 681 m 379 60 b 626 335 532 60 626 183 b 379 610 626 488 532 610 b 129 335 228 610 129 488 b 379 60 129 183 228 60 m 554 940 l 554 868 l 206 868 l 206 940 "},"ǿ":{"ha":756,"x_min":0,"x_max":0,"o":"m 629 558 b 701 335 675 499 701 421 b 381 -10 701 144 571 -10 b 179 61 301 -10 233 17 l 103 -24 l 49 25 l 128 113 b 56 335 82 172 56 250 b 381 681 56 525 189 681 b 578 611 458 681 525 654 l 654 694 l 707 646 m 129 335 b 178 167 129 272 146 214 l 531 558 b 381 610 492 592 440 610 b 129 335 228 610 129 488 m 628 335 b 579 504 628 399 610 457 l 226 113 b 381 60 267 79 319 60 b 628 335 532 60 628 183 m 542 972 l 404 783 l 347 783 l 454 972 "},"õ":{"ha":756,"x_min":0,"x_max":0,"o":"m 379 681 b 700 335 571 681 700 525 b 379 -10 700 144 571 -10 b 56 335 189 -10 56 144 b 379 681 56 525 189 681 m 379 60 b 626 335 532 60 626 183 b 379 610 626 488 532 610 b 129 335 228 610 129 488 b 379 60 129 183 228 60 m 604 893 b 482 774 588 831 550 768 b 297 863 394 781 349 863 b 214 796 260 863 238 836 l 154 829 b 299 931 178 876 218 936 b 476 844 385 925 426 850 b 540 911 510 840 526 868 "},"ŕ":{"ha":431,"x_min":0,"x_max":0,"o":"m 375 681 b 411 678 388 681 400 679 l 399 607 b 375 608 390 607 383 608 b 169 360 267 608 169 538 l 169 0 l 97 0 l 97 669 l 169 669 l 169 571 b 375 681 215 640 288 681 m 417 972 l 279 783 l 222 783 l 329 972 "},"ř":{"ha":431,"x_min":0,"x_max":0,"o":"m 375 681 b 411 678 388 681 400 679 l 399 607 b 375 608 390 607 383 608 b 169 360 267 608 169 538 l 169 0 l 97 0 l 97 669 l 169 669 l 169 571 b 375 681 215 640 288 681 m 439 972 l 286 783 l 215 783 l 63 972 l 153 972 l 250 839 l 349 972 "},"ŗ":{"ha":431,"x_min":0,"x_max":0,"o":"m 376 681 b 413 678 389 681 401 679 l 400 607 b 376 608 392 607 385 608 b 171 360 268 608 171 538 l 171 0 l 99 0 l 99 669 l 171 669 l 171 571 b 376 681 217 640 289 681 m 168 -107 l 92 -289 l 42 -289 l 88 -107 "},"ś":{"ha":600,"x_min":0,"x_max":0,"o":"m 292 681 b 517 540 410 681 490 625 l 450 510 b 290 608 436 569 379 608 b 143 486 196 608 139 565 b 313 378 147 428 204 404 b 544 181 422 351 544 318 b 310 -11 544 51 431 -11 b 56 143 156 -11 82 63 l 122 174 b 310 61 140 103 206 61 b 472 181 388 61 472 94 b 294 307 472 256 414 278 b 71 486 154 343 76 383 b 292 681 65 600 144 681 m 460 972 l 322 783 l 265 783 l 372 972 "},"š":{"ha":600,"x_min":0,"x_max":0,"o":"m 292 681 b 517 540 410 681 490 625 l 450 510 b 290 608 436 569 379 608 b 143 486 196 608 139 565 b 313 378 147 428 204 404 b 544 181 422 351 544 318 b 310 -11 544 51 431 -11 b 56 143 156 -11 82 63 l 122 174 b 310 61 140 103 206 61 b 472 181 388 61 472 94 b 294 307 472 256 414 278 b 71 486 154 343 76 383 b 292 681 65 600 144 681 m 489 972 l 336 783 l 265 783 l 113 972 l 203 972 l 300 839 l 399 972 "},"ŝ":{"ha":600,"x_min":0,"x_max":0,"o":"m 292 681 b 517 540 410 681 490 625 l 450 510 b 290 608 436 569 379 608 b 143 486 196 608 139 565 b 313 378 147 428 204 404 b 544 181 422 351 544 318 b 310 -11 544 51 431 -11 b 56 143 156 -11 82 63 l 122 174 b 310 61 140 103 206 61 b 472 181 388 61 472 94 b 294 307 472 256 414 278 b 71 486 154 343 76 383 b 292 681 65 600 144 681 m 106 783 l 258 972 l 329 972 l 482 783 l 392 783 l 294 917 l 196 783 "},"ș":{"ha":600,"x_min":0,"x_max":0,"o":"m 292 681 b 517 540 410 681 490 625 l 450 510 b 290 608 436 569 379 608 b 143 486 196 608 139 565 b 313 378 147 428 204 404 b 544 181 422 351 544 318 b 310 -11 544 51 431 -11 b 56 143 156 -11 82 63 l 122 174 b 310 61 140 103 206 61 b 472 181 388 61 472 94 b 294 307 472 256 414 278 b 71 486 154 343 76 383 b 292 681 65 600 144 681 m 315 -107 l 239 -289 l 189 -289 l 235 -107 "},"ť":{"ha":469,"x_min":0,"x_max":0,"o":"m 426 43 b 229 0 367 -10 282 -21 b 131 196 174 21 131 72 l 131 597 l 28 597 l 28 669 l 131 669 l 131 840 l 203 860 l 203 669 l 356 669 l 356 597 l 203 597 l 203 193 b 260 68 203 97 236 76 b 386 99 294 54 351 68 m 465 967 l 553 967 l 456 733 l 404 733 "},"ţ":{"ha":433,"x_min":0,"x_max":0,"o":"m 426 43 b 229 0 367 -10 282 -21 b 131 196 174 21 131 72 l 131 597 l 28 597 l 28 669 l 131 669 l 131 840 l 203 860 l 203 669 l 356 669 l 356 597 l 203 597 l 203 193 b 260 68 203 97 236 76 b 386 99 294 54 351 68 m 278 -107 l 201 -289 l 151 -289 l 197 -107 "},"ú":{"ha":685,"x_min":0,"x_max":0,"o":"m 601 669 b 601 310 601 669 601 476 b 336 -10 601 118 521 -10 b 69 310 150 -10 69 118 b 69 669 69 476 69 669 l 142 669 b 142 310 142 669 142 463 b 336 63 142 133 222 63 b 529 310 450 63 529 133 b 529 669 529 463 529 669 m 496 972 l 358 783 l 301 783 l 408 972 "},"ŭ":{"ha":685,"x_min":0,"x_max":0,"o":"m 601 669 b 601 310 601 669 601 476 b 336 -10 601 118 521 -10 b 69 310 150 -10 69 118 b 69 669 69 476 69 669 l 142 669 b 142 310 142 669 142 463 b 336 63 142 133 222 63 b 529 310 450 63 529 133 b 529 669 529 463 529 669 m 499 958 b 336 786 499 865 433 786 b 172 958 244 786 176 854 l 238 958 b 336 851 238 897 279 851 b 433 958 390 851 433 897 "},"û":{"ha":685,"x_min":0,"x_max":0,"o":"m 601 669 b 601 310 601 669 601 476 b 336 -10 601 118 521 -10 b 69 310 150 -10 69 118 b 69 669 69 476 69 669 l 142 669 b 142 310 142 669 142 463 b 336 63 142 133 222 63 b 529 310 450 63 529 133 b 529 669 529 463 529 669 m 146 783 l 299 972 l 369 972 l 522 783 l 432 783 l 335 917 l 236 783 "},"ü":{"ha":685,"x_min":0,"x_max":0,"o":"m 601 669 b 601 310 601 669 601 476 b 336 -10 601 118 521 -10 b 69 310 150 -10 69 118 b 69 669 69 476 69 669 l 142 669 b 142 310 142 669 142 463 b 336 63 142 133 222 63 b 529 310 450 63 529 133 b 529 669 529 463 529 669 m 231 924 b 282 872 260 924 282 900 b 231 821 282 844 260 821 b 179 872 203 821 179 844 b 231 924 179 900 203 924 m 442 924 b 493 872 469 924 493 900 b 442 821 493 844 469 821 b 390 872 414 821 390 844 b 442 924 390 900 414 924 "},"ű":{"ha":685,"x_min":0,"x_max":0,"o":"m 601 669 b 601 310 601 669 601 476 b 336 -10 601 118 521 -10 b 69 310 150 -10 69 118 b 69 669 69 476 69 669 l 142 669 b 142 310 142 669 142 463 b 336 63 142 133 222 63 b 529 310 450 63 529 133 b 529 669 529 463 529 669 m 400 972 l 263 783 l 206 783 l 313 972 m 593 972 l 456 783 l 399 783 l 506 972 "},"ù":{"ha":685,"x_min":0,"x_max":0,"o":"m 601 669 b 601 310 601 669 601 476 b 336 -10 601 118 521 -10 b 69 310 150 -10 69 118 b 69 669 69 476 69 669 l 142 669 b 142 310 142 669 142 463 b 336 63 142 133 222 63 b 529 310 450 63 529 133 b 529 669 529 463 529 669 m 372 783 l 315 783 l 178 972 l 265 972 "},"ū":{"ha":685,"x_min":0,"x_max":0,"o":"m 601 669 b 601 310 601 669 601 476 b 336 -10 601 118 521 -10 b 69 310 150 -10 69 118 b 69 669 69 476 69 669 l 142 669 b 142 310 142 669 142 463 b 336 63 142 133 222 63 b 529 310 450 63 529 133 b 529 669 529 463 529 669 m 510 940 l 510 868 l 161 868 l 161 940 "},"ů":{"ha":685,"x_min":0,"x_max":0,"o":"m 601 669 b 601 310 601 669 601 476 b 336 -10 601 118 521 -10 b 69 310 150 -10 69 118 b 69 669 69 476 69 669 l 142 669 b 142 310 142 669 142 463 b 336 63 142 133 222 63 b 529 310 450 63 529 133 b 529 669 529 463 529 669 m 335 1058 b 472 921 414 1058 472 999 b 335 783 472 843 414 783 b 199 921 257 783 199 843 b 335 1058 199 999 257 1058 m 335 842 b 414 921 381 842 414 875 b 335 999 414 967 381 999 b 257 921 290 999 257 967 b 335 842 257 875 290 842 "},"ũ":{"ha":685,"x_min":0,"x_max":0,"o":"m 601 669 b 601 310 601 669 601 476 b 336 -10 601 118 521 -10 b 69 310 150 -10 69 118 b 69 669 69 476 69 669 l 142 669 b 142 310 142 669 142 463 b 336 63 142 133 222 63 b 529 310 450 63 529 133 b 529 669 529 463 529 669 m 558 893 b 436 774 542 831 504 768 b 251 863 349 781 303 863 b 168 796 214 863 192 836 l 108 829 b 253 931 132 876 172 936 b 431 844 339 925 381 850 b 494 911 464 840 481 868 "},"ẃ":{"ha":986,"x_min":0,"x_max":0,"o":"m 958 669 l 743 0 l 669 0 l 486 553 l 304 0 l 231 0 l 14 669 l 90 669 l 269 115 l 453 669 l 521 669 l 704 115 l 883 669 m 664 972 l 526 783 l 469 783 l 576 972 "},"ŵ":{"ha":986,"x_min":0,"x_max":0,"o":"m 958 669 l 743 0 l 669 0 l 486 553 l 304 0 l 231 0 l 14 669 l 90 669 l 269 115 l 453 669 l 521 669 l 704 115 l 883 669 m 299 783 l 451 972 l 522 972 l 675 783 l 585 783 l 488 917 l 389 783 "},"ẅ":{"ha":986,"x_min":0,"x_max":0,"o":"m 958 669 l 743 0 l 669 0 l 486 553 l 304 0 l 231 0 l 14 669 l 90 669 l 269 115 l 453 669 l 521 669 l 704 115 l 883 669 m 381 924 b 432 872 410 924 432 900 b 381 821 432 844 410 821 b 329 872 353 821 329 844 b 381 924 329 900 353 924 m 592 924 b 643 872 619 924 643 900 b 592 821 643 844 619 821 b 540 872 564 821 540 844 b 592 924 540 900 564 924 "},"ẁ":{"ha":986,"x_min":0,"x_max":0,"o":"m 958 669 l 743 0 l 669 0 l 486 553 l 304 0 l 231 0 l 14 669 l 90 669 l 269 115 l 453 669 l 521 669 l 704 115 l 883 669 m 513 783 l 456 783 l 318 972 l 406 972 "},"ý":{"ha":632,"x_min":0,"x_max":0,"o":"m 367 14 b 261 -208 329 -86 301 -157 b 75 -268 228 -251 171 -283 l 92 -197 b 285 1 190 -211 219 -168 l 33 669 l 111 669 l 322 101 l 535 669 l 613 669 m 501 972 l 364 783 l 307 783 l 414 972 "},"ŷ":{"ha":632,"x_min":0,"x_max":0,"o":"m 367 14 b 261 -208 329 -86 301 -157 b 75 -268 228 -251 171 -283 l 92 -197 b 285 1 190 -211 219 -168 l 33 669 l 111 669 l 322 101 l 535 669 l 613 669 m 144 783 l 297 972 l 368 972 l 521 783 l 431 783 l 333 917 l 235 783 "},"ÿ":{"ha":632,"x_min":0,"x_max":0,"o":"m 367 14 b 261 -208 329 -86 301 -157 b 75 -268 228 -251 171 -283 l 92 -197 b 285 1 190 -211 219 -168 l 33 669 l 111 669 l 322 101 l 535 669 l 613 669 m 233 924 b 285 872 263 924 285 900 b 233 821 285 844 263 821 b 182 872 206 821 182 844 b 233 924 182 900 206 924 m 444 924 b 496 872 472 924 496 900 b 444 821 496 844 472 821 b 393 872 417 821 393 844 b 444 924 393 900 417 924 "},"ỳ":{"ha":632,"x_min":0,"x_max":0,"o":"m 367 14 b 261 -208 329 -86 301 -157 b 75 -268 228 -251 171 -283 l 92 -197 b 285 1 190 -211 219 -168 l 33 669 l 111 669 l 322 101 l 535 669 l 613 669 m 360 783 l 303 783 l 165 972 l 253 972 "},"ź":{"ha":614,"x_min":0,"x_max":0,"o":"m 558 72 l 558 0 l 42 0 l 42 72 l 457 597 l 60 597 l 60 669 l 546 669 l 546 597 l 133 72 m 471 972 l 333 783 l 276 783 l 383 972 "},"ž":{"ha":614,"x_min":0,"x_max":0,"o":"m 558 72 l 558 0 l 42 0 l 42 72 l 457 597 l 60 597 l 60 669 l 546 669 l 546 597 l 133 72 m 507 972 l 354 783 l 283 783 l 131 972 l 221 972 l 318 839 l 417 972 "},"ż":{"ha":614,"x_min":0,"x_max":0,"o":"m 558 72 l 558 0 l 42 0 l 42 72 l 457 597 l 60 597 l 60 669 l 546 669 l 546 597 l 133 72 m 318 924 b 369 872 347 924 369 900 b 318 821 369 844 347 821 b 268 872 290 821 268 844 b 318 924 268 900 290 924 "},"Ќ":{"ha":846,"x_min":0,"x_max":0,"o":"m 378 451 l 183 451 l 183 0 l 111 0 l 111 972 l 183 972 l 183 524 l 375 524 l 706 972 l 796 972 l 440 489 l 832 0 l 742 0 m 581 1250 l 443 1061 l 386 1061 l 493 1250 "},"ќ":{"ha":667,"x_min":0,"x_max":0,"o":"m 319 299 l 169 299 l 169 0 l 97 0 l 97 669 l 169 669 l 169 371 l 299 371 l 518 669 l 608 669 l 372 349 l 653 0 l 558 0 m 488 972 l 350 783 l 293 783 l 400 972 "},"Ѓ":{"ha":646,"x_min":0,"x_max":0,"o":"m 111 847 l 183 775 l 183 276 l 111 276 m 111 149 l 183 149 l 183 0 l 111 0 m 632 972 l 632 900 l 256 900 l 183 972 m 522 1250 l 385 1061 l 328 1061 l 435 1250 "},"ѓ":{"ha":551,"x_min":0,"x_max":0,"o":"m 510 597 l 156 597 l 156 0 l 83 0 l 83 669 l 510 669 m 463 972 l 325 783 l 268 783 l 375 972 "},"Ї":{"ha":294,"x_min":0,"x_max":0,"o":"m 185 972 l 185 824 l 113 824 l 113 972 m 113 696 l 185 696 l 185 0 l 113 0 m 40 1201 b 92 1150 69 1201 92 1178 b 40 1099 92 1122 69 1099 b -11 1150 13 1099 -11 1122 b 40 1201 -11 1178 13 1201 m 251 1201 b 303 1150 279 1201 303 1178 b 251 1099 303 1122 279 1099 b 200 1150 224 1099 200 1122 b 251 1201 200 1178 224 1201 "},"ї":{"ha":283,"x_min":0,"x_max":0,"o":"m 96 669 l 168 669 l 168 0 l 96 0 m 26 924 b 78 872 56 924 78 900 b 26 821 78 844 56 821 b -25 872 -1 821 -25 844 b 26 924 -25 900 -1 924 m 238 924 b 289 872 265 924 289 900 b 238 821 289 844 265 821 b 186 872 210 821 186 844 b 238 924 186 900 210 924 "},"Ў":{"ha":761,"x_min":0,"x_max":0,"o":"m 775 972 l 356 0 l 276 0 l 393 269 l 14 972 l 94 972 l 432 360 l 696 972 m 585 1236 b 422 1064 585 1143 519 1064 b 258 1236 331 1064 263 1132 l 324 1236 b 422 1129 324 1175 365 1129 b 519 1236 476 1129 519 1175 "},"ў":{"ha":632,"x_min":0,"x_max":0,"o":"m 367 14 b 261 -208 329 -86 301 -157 b 75 -268 228 -251 171 -283 l 92 -197 b 285 1 190 -211 219 -168 l 33 669 l 111 669 l 322 101 l 535 669 l 613 669 m 490 958 b 328 786 490 865 425 786 b 164 958 236 786 168 854 l 229 958 b 328 851 229 897 271 851 b 425 958 382 851 425 897 "},"…":{"ha":672,"x_min":0,"x_max":0,"o":"m 93 90 b 144 39 121 90 144 67 b 93 -12 144 11 121 -12 b 42 39 64 -12 42 11 b 93 90 42 67 64 90 m 329 90 b 381 39 357 90 381 67 b 329 -12 381 11 357 -12 b 278 39 300 -12 278 11 b 329 90 278 67 300 90 m 565 90 b 617 39 593 90 617 67 b 565 -12 617 11 593 -12 b 514 39 536 -12 514 11 b 565 90 514 67 536 90 "},"Ț":{"ha":732,"x_min":0,"x_max":0,"o":"m 718 972 l 718 900 l 15 900 l 15 972 m 331 711 l 403 711 l 403 0 l 331 0 m 396 -107 l 319 -289 l 269 -289 l 315 -107 "},"ț":{"ha":433,"x_min":0,"x_max":0,"o":"m 426 43 b 229 0 367 -10 282 -21 b 131 196 174 21 131 72 l 131 597 l 28 597 l 28 669 l 131 669 l 131 840 l 203 860 l 203 669 l 356 669 l 356 597 l 203 597 l 203 193 b 260 68 203 97 236 76 b 386 99 294 54 351 68 m 278 -107 l 201 -289 l 151 -289 l 197 -107 "},"‹":{"ha":411,"x_min":0,"x_max":0,"o":"m 172 372 l 328 154 l 238 154 l 83 372 l 238 590 l 328 590 "},"›":{"ha":411,"x_min":0,"x_max":0,"o":"m 328 372 l 172 154 l 83 154 l 238 372 l 83 590 l 172 590 "},"‚":{"ha":274,"x_min":0,"x_max":0,"o":"m 131 14 l 218 14 l 121 -219 l 69 -219 "},"„":{"ha":439,"x_min":0,"x_max":0,"o":"m 131 14 l 218 14 l 121 -219 l 69 -219 m 383 14 l 288 -219 l 236 -219 l 296 14 "},"H":{"ha":960,"x_min":0,"x_max":0,"o":"m 111 261 l 183 261 l 183 0 l 111 0 m 849 972 l 849 711 l 776 711 l 776 972 m 849 522 l 849 0 l 776 0 l 776 450 l 111 450 l 111 972 l 183 972 l 183 522 "}}}
